<svg width="265" height="265" viewBox="0 0 265 265" fill="none" xmlns="http://www.w3.org/2000/svg">
<g clip-path="url(#clip0_0_1)">
<g filter="url(#filter0_i_0_1)">
<ellipse cx="132" cy="132.5" rx="126" ry="121.5" fill="url(#paint0_radial_0_1)"/>
</g>
<mask id="mask0_0_1" style="mask-type:alpha" maskUnits="userSpaceOnUse" x="-34" y="-25" width="333" height="315">
<ellipse cx="132.5" cy="132.5" rx="166.5" ry="157.5" fill="white"/>
</mask>
<g mask="url(#mask0_0_1)">
<path d="M29.2474 127.091C32.4813 126.689 35.7772 127.558 38.647 129.083C41.587 130.708 43.3353 134.006 43.7057 137.364C43.8091 138.653 44.5374 139.9 45.7416 140.367C49.4058 141.881 53.0183 143.611 56.2646 145.958C59.904 148.552 63.0944 151.861 65.422 155.76C66.2475 157.161 67.0834 158.609 67.3834 160.243C67.5489 161.153 67.3917 162.2 66.6862 162.838C65.5855 163.883 64.0047 163.98 62.5916 164.121C57.4729 164.442 52.3459 164.194 47.223 164.177C46.8423 164.1 46.5754 164.498 46.1947 164.423C42.3277 164.399 38.4628 164.474 34.5979 164.421C30.762 164.502 26.7833 163.847 23.479 161.727C20.4893 159.846 18.3045 156.72 17.39 153.238C16.1837 148.779 16.7465 144.02 18.0003 139.641C19.0038 136.045 20.5597 132.449 23.299 129.909C24.9501 128.385 27.0502 127.382 29.2474 127.091Z" fill="#B64B7C"/>
<path d="M236.489 129.22C238.905 129.085 241.423 129.516 243.466 130.677C245.106 131.575 246.361 132.886 247.519 134.21C250.395 137.554 252.108 141.597 252.562 145.732C252.801 148.232 252.712 150.763 252.204 153.237C251.557 156.245 249.517 158.961 246.746 160.852C244.145 162.642 240.95 163.722 237.675 164.164C235.431 164.488 233.151 164.375 230.888 164.44C224.556 164.448 218.224 164.367 211.892 164.394C208.528 164.373 205.164 164.434 201.802 164.361C199.797 164.143 197.51 163.98 196.023 162.658C194.826 161.447 195.46 159.73 196.142 158.445C198.232 154.76 201.333 151.532 204.993 148.922C208.788 146.206 213.154 144.138 217.699 142.514C218.859 142.07 220.159 141.773 221.058 140.952C221.881 140.264 222.148 139.263 222.307 138.32C222.743 135.79 224.186 133.3 226.653 131.799C228.482 130.606 230.75 130.12 232.947 129.678C234.109 129.438 235.299 129.311 236.489 129.22Z" fill="#B64B7C"/>
<path d="M24.2906 185.833C25.1436 184.732 26.5731 184.188 27.9393 184.275C37.8777 184.617 47.8162 185.024 57.7288 185.828C61.1713 186.071 64.3982 187.81 66.7369 190.323C68.4054 192.005 69.556 194.101 70.7418 196.132C74.0062 201.805 76.994 207.634 80.1365 213.375C80.4318 213.889 80.4787 214.495 80.6755 215.051C74.2686 215.096 67.8594 215.058 61.4525 215.07C55.9759 214.943 50.4548 215.459 45.0205 214.565C42.7661 214.214 40.575 213.545 38.4636 212.685C34.7891 211.315 31.2529 209.432 28.3354 206.774C26.3763 205.004 24.8718 202.71 24.1547 200.153C23.1166 196.46 23.3322 192.58 23.4118 188.788C23.4329 187.751 23.6298 186.665 24.2906 185.833Z" fill="#B64B7C"/>
<path d="M217.192 179.183C224.998 178.647 232.802 178.072 240.615 177.663C242.174 177.62 244.039 177.8 245.057 179.609C246.165 181.731 246.034 184.462 246.073 186.927C246.015 192.392 245.598 198.235 243.124 202.804C240.862 206.961 237.347 209.46 233.852 211.349C231.251 212.749 228.572 213.966 225.79 214.536C223.38 215.071 220.927 214.782 218.5 215.025C211.628 215.191 204.754 215.045 197.882 215.054C196.729 215.1 195.58 214.859 194.43 215.017C193.87 215.223 193.524 214.527 193.146 214.126C196.759 205.916 200.26 197.614 204.095 189.581C204.894 187.963 205.613 186.254 206.597 184.817C209.259 180.906 213.323 179.263 217.192 179.183Z" fill="#B64B7C"/>
<path d="M82.4198 61.3959C85.2225 60.788 88.0826 61.0839 90.9149 60.9706C112.72 60.9498 134.525 60.8504 156.328 60.959C162.655 60.9475 168.982 60.9683 175.307 61.0099C176.981 61.0746 178.657 60.9567 180.329 61.137C184.719 61.4768 189.055 63.4348 192.326 66.9139C194.671 69.2834 196.21 72.4689 197.88 75.4671C202.484 83.8308 206.913 92.3216 211.447 100.738C211.999 101.802 212.72 102.803 212.934 104.053C213.11 104.876 212.89 105.794 212.368 106.384C211.815 107.068 211.02 107.354 210.279 107.641C207.656 108.679 204.992 109.719 202.213 109.95C192.589 110.397 182.962 110.734 173.332 110.954C163.453 111.208 153.571 111.442 143.69 111.319C139.931 111.338 136.171 111.266 132.412 111.273C132.38 111.344 132.315 111.485 132.284 111.557C128.702 111.624 125.121 111.465 121.541 111.437C116.011 111.314 110.479 111.338 104.948 111.187C100.007 111.097 95.0656 111.099 90.1243 110.958C84.9794 110.871 79.8326 110.822 74.6857 110.662C71.8 110.632 68.9083 110.639 66.0266 110.39C63.0222 110.045 60.0594 109.363 57.0887 108.762C55.798 108.499 54.6477 107.724 53.5152 107.001C52.9143 106.617 52.3016 106.104 52.0822 105.309C51.8648 104.435 52.1533 103.54 52.4834 102.763C57.6441 90.6549 63.8682 79.1404 71.2327 68.7008C74.075 64.8218 78.1189 62.2281 82.4198 61.3959Z" fill="#8F4869"/>
<path d="M76.0334 145.198C79.4539 142.377 83.0044 142.309 86.5122 142.464C118.464 142.396 150.415 142.396 182.365 142.464C186.261 142.544 190.267 141.666 194.019 145.687C195.358 147.351 196.371 150.723 197.556 153.198C197.446 153.99 197.337 154.782 197.232 155.58C155.562 155.673 113.893 155.605 72.2249 155.611C72.1027 154.9 71.9785 154.194 71.8544 153.489C73.1504 150.309 74.3339 146.015 76.0334 145.198Z" fill="#8F4869"/>
<path d="M71.8544 155.638C113.754 155.646 155.656 155.672 197.556 155.629C197.407 158.552 197.289 161.479 197.17 164.411C161.679 164.373 126.189 164.407 90.6977 164.394C84.6041 164.424 78.5106 164.335 72.419 164.441C72.1885 161.518 72.0752 158.561 71.8544 155.638Z" fill="#8F4869"/>
<path d="M71.8544 162.238C113.019 162.261 154.186 162.23 195.351 162.254C195.32 164.245 195.27 166.279 194.962 168.184C194.729 169.676 194.004 170.659 193.25 170.742C190.733 171.163 188.206 170.895 185.687 170.97C180.649 170.907 175.607 171.112 170.572 170.836C153.392 170.84 136.209 170.84 119.028 170.836C114.701 171.1 110.366 170.915 106.037 170.97C95.7689 170.962 85.4985 171.045 75.23 171.049C74.3638 171.041 73.4221 170.352 72.9822 168.743C72.4163 166.728 72.3175 164.343 71.8544 162.238Z" fill="#8F4869"/>
<path d="M76.265 173.264C115.226 173.248 154.185 173.248 193.146 173.264C191.777 176.462 190.24 179.602 188.272 181.104C186.629 182.367 184.847 182.031 183.132 181.999C150.69 181.995 118.25 181.999 85.8079 181.999C84.3405 182.063 82.8305 182.25 81.4174 181.258C79.3316 179.857 77.6994 176.591 76.265 173.264Z" fill="#8F4869"/>
<path d="M74.0596 188.677C113.02 188.69 151.98 188.705 190.94 188.671C190.602 194.662 188.822 200.332 186.279 204.864C183.641 209.524 180.111 213.13 176.158 214.505C174.33 215.21 172.443 215.072 170.579 215.072C145.021 215.14 119.463 215.085 93.9071 215.066C90.9941 215.005 87.9756 214.807 85.2955 212.867C82.2332 210.763 79.8219 206.92 78.0459 202.628C76.2499 198.331 75.0174 193.545 74.0596 188.677Z" fill="#8F4869"/>
<g filter="url(#filter1_d_0_1)">
<path fill-rule="evenodd" clip-rule="evenodd" d="M248.755 212.896C228.676 220.367 216.825 221.452 194.938 219.522C190.167 219.553 185.395 219.54 180.622 219.509C176.949 219.54 173.276 219.542 169.603 219.543C167.818 219.544 166.033 219.545 164.247 219.549C161.517 219.499 158.785 219.517 156.053 219.535C154.011 219.549 151.967 219.562 149.924 219.547C145.436 219.53 140.948 219.539 136.46 219.547C130.783 219.557 125.106 219.567 119.43 219.527C114.122 219.572 108.814 219.563 103.506 219.555C98.8949 219.548 94.284 219.54 89.6734 219.568C87.4546 219.576 85.2359 219.567 83.0174 219.559C79.2956 219.544 75.5742 219.53 71.8536 219.593C49.6683 222.263 37.5769 222.318 18.0565 213.903C18.0409 212.746 17.591 211.669 17.15 210.612C17.0793 210.443 17.0089 210.275 16.9405 210.106C16.6472 209.427 16.3384 208.754 16.0296 208.08C15.1917 206.252 14.3528 204.422 13.8175 202.478C11.4476 193.615 10.4155 184.418 10.4928 175.251C10.5891 165.285 10.7927 155.317 11.1979 145.355C11.2554 144.407 11.2946 143.457 11.3339 142.506C11.4498 139.702 11.5658 136.894 12.1507 134.14C12.7964 131.051 13.906 128.048 15.4814 125.309C17.1087 122.482 19.2472 119.958 21.6714 117.782C22.6755 116.855 23.6799 115.929 24.6843 115.003C30.1108 109.999 35.5373 104.996 40.9123 99.9349C41.6836 99.258 41.9363 98.2392 42.1751 97.2765C42.1977 97.1854 42.2202 97.0947 42.243 97.0049C40.4949 96.2306 38.5874 96.1539 36.7033 96.0781C36.3334 96.0633 35.9645 96.0484 35.5978 96.0283C33.7173 95.9028 31.7924 95.6686 30.0786 94.8327C28.6565 94.1897 27.2265 93.2968 26.4434 91.9015C26.02 91.1158 25.8382 90.1851 26.0429 89.3071C26.4209 87.4199 27.6986 85.8892 29.0024 84.5406C30.911 82.5998 33.4699 81.3505 36.1513 80.9198C38.4245 80.5454 40.7453 80.6274 43.028 80.8753L43.0986 80.8851C43.7323 80.9736 44.4015 81.0669 44.9315 81.4499C45.5138 81.8995 45.8275 82.6336 45.8531 83.3571C45.9063 84.6588 45.9039 85.9616 45.9016 87.2643C45.8993 88.5211 45.897 89.778 45.9447 91.034C46.9859 91.2199 48.157 91.4084 49.112 90.8244C50.0712 90.2699 50.5932 89.2906 51.1009 88.3384C51.2158 88.1228 51.33 87.9085 51.4484 87.701C55.9634 79.4591 61.381 71.6977 67.6815 64.7158C70.6662 61.2349 74.5593 58.4562 78.9858 57.1484C79.8358 56.8569 80.7159 56.7002 81.5965 56.5435C82.2562 56.426 82.9161 56.3086 83.5637 56.1343L98.1624 56C99.7331 56.1027 101.308 56.0933 102.883 56.0839C103.937 56.0776 104.99 56.0713 106.042 56.0986C110.569 56.0675 115.096 56.0741 119.623 56.0806C124.704 56.0879 129.785 56.0953 134.867 56.0495C136.651 56.0524 138.434 56.0615 140.218 56.0706C144.333 56.0916 148.449 56.1126 152.565 56.0577C156.834 56.0748 161.105 56.0994 165.376 56.124C168.999 56.0813 172.622 56.1073 176.245 56.1334L176.262 56.1335C177.716 56.1439 179.17 56.1544 180.624 56.1604C184.552 56.0791 188.504 57.0091 191.965 58.8703C194.1 60.0218 196.038 61.5287 197.736 63.2576C204.816 70.795 210.789 79.3295 215.754 88.3884C215.814 88.4936 215.873 88.6006 215.934 88.7085C216.468 89.6693 217.042 90.6999 218.111 91.1227C219.059 91.4355 220.071 91.0765 220.918 90.6363C220.912 90.127 220.903 89.6175 220.895 89.1078C220.865 87.2867 220.834 85.4636 220.919 83.6429C220.975 82.5746 221.503 81.203 222.728 81.0827C226.202 80.4472 229.929 80.2343 233.272 81.5684C235.734 82.5045 237.807 84.277 239.369 86.3701C240.189 87.5206 240.872 88.8867 240.75 90.3372C240.655 91.7199 239.725 92.8846 238.634 93.6654C236.978 94.8331 235.034 95.6029 233.018 95.8377C231.987 95.958 230.95 96.0182 229.913 96.0783C229.174 96.1212 228.435 96.1641 227.698 96.2288C226.588 96.3293 225.531 96.6924 224.487 97.0554C224.811 98.1034 225.172 99.2036 225.964 99.9971C231.228 104.961 236.545 109.871 241.891 114.747C242.337 115.156 242.787 115.56 243.238 115.965C245.169 117.699 247.106 119.437 248.693 121.501C252.793 126.665 254.885 133.183 255.352 139.704C255.564 144.531 255.793 149.359 256.066 154.184C256.112 154.924 256.128 155.667 256.145 156.409C256.171 157.582 256.197 158.754 256.341 159.917L256.489 175.935C256.35 176.705 256.335 177.485 256.32 178.265C256.31 178.804 256.3 179.343 256.248 179.879C256.035 184.286 255.601 188.685 254.88 193.038C254.799 193.531 254.719 194.026 254.638 194.521C253.774 199.845 252.892 205.285 250.143 210.003C249.99 210.3 249.791 210.582 249.592 210.864C249.155 211.483 248.717 212.105 248.755 212.896ZM195.087 211.431L195.101 211.363C195.197 210.88 195.295 210.386 195.55 209.955C196.467 208.297 197.365 206.629 198.263 204.96C200.153 201.448 202.044 197.936 204.11 194.525C205.638 191.973 207.877 189.713 210.728 188.702C212.119 188.165 213.617 188.071 215.091 187.977L215.371 187.96C222.419 187.435 229.482 187.164 236.544 186.893L237 186.875C238.076 186.788 239.234 187.003 240.042 187.766C240.797 188.423 241.033 189.461 241.058 190.421L241.067 190.676C241.16 193.545 241.254 196.458 240.547 199.263C240.01 201.284 238.882 203.127 237.368 204.564C235.367 206.453 232.96 207.881 230.43 208.942C230.202 209.031 229.974 209.12 229.747 209.21C228.213 209.813 226.676 210.418 225.061 210.755C221.697 211.511 218.258 211.469 214.827 211.428C213.569 211.413 212.312 211.397 211.06 211.422C208.121 211.474 205.182 211.456 202.243 211.438C199.858 211.423 197.473 211.409 195.087 211.431ZM142.712 211.453C139.987 211.417 137.262 211.43 134.537 211.444C132.363 211.454 130.189 211.465 128.014 211.451C125.109 211.484 122.204 211.471 119.3 211.458C117.179 211.448 115.059 211.438 112.938 211.447C106.72 211.468 100.504 211.482 94.2889 211.402C90.1241 211.072 86.2438 208.925 83.3915 205.934C80.5703 203.044 78.6426 199.238 78.2344 195.204C78.7886 195.149 79.3454 195.16 79.9026 195.172C80.3194 195.18 80.7364 195.188 81.1529 195.169C86.1115 195.206 91.0715 195.183 96.0314 195.156C99.7471 195.16 103.462 195.17 107.177 195.181L107.18 195.181L110.905 195.191C114.621 195.14 118.337 195.153 122.054 195.165C123.985 195.172 125.916 195.178 127.847 195.176C129.946 195.194 132.045 195.18 134.145 195.165C136.506 195.149 138.868 195.132 141.23 195.163C142.68 195.164 144.129 195.167 145.578 195.17C149.779 195.179 153.979 195.188 158.178 195.137C163.333 195.187 168.489 195.173 173.644 195.16C178.682 195.147 183.72 195.133 188.757 195.179C188.256 196.992 187.573 198.747 186.804 200.459C185.385 203.459 183.542 206.373 180.872 208.413C178.722 210.102 176.05 211.095 173.321 211.257C170.948 211.464 168.565 211.447 166.184 211.43C165.7 211.426 165.217 211.423 164.733 211.421C160.63 211.397 156.527 211.414 152.424 211.432C149.186 211.446 145.949 211.459 142.712 211.453ZM46.6524 211.318C42.5024 211.365 38.5197 209.949 34.7813 208.276C31.9561 206.996 29.2236 205.16 27.6523 202.416C26.0633 199.605 25.7504 196.309 25.691 193.14C25.6966 192.901 25.6984 192.659 25.7003 192.416C25.7105 191.075 25.7211 189.695 26.3636 188.49C26.9044 187.5 28.0184 187.001 29.106 186.918C30.4477 186.827 31.7884 186.901 33.1288 186.976C33.8021 187.013 34.4753 187.051 35.1485 187.067C38.4088 187.222 41.6685 187.387 44.928 187.553L44.9303 187.553L44.9326 187.553C46.8812 187.652 48.8297 187.752 50.7782 187.848C54.0872 187.889 57.5609 188.831 59.9538 191.223C60.8685 192.129 61.5535 193.219 62.2357 194.305C62.4664 194.672 62.6968 195.038 62.9357 195.397C65.1107 198.85 67.1667 202.375 69.2228 205.9C70.1747 207.532 71.1267 209.164 72.0905 210.789C72.0303 210.842 71.9712 210.902 71.9112 210.962C71.6976 211.178 71.4733 211.405 71.1526 211.388C70.055 211.399 68.9578 211.405 67.8608 211.41C66.5055 211.417 65.1506 211.423 63.7957 211.442C62.7571 211.47 61.7194 211.452 60.6819 211.433C59.5849 211.414 58.4882 211.394 57.391 211.43C53.8096 211.464 50.2313 211.424 46.6524 211.318ZM161.795 178.715C157.604 178.759 153.413 178.752 149.221 178.746C147.825 178.743 146.429 178.741 145.033 178.741C142.708 178.712 140.383 178.727 138.058 178.743C135.863 178.757 133.668 178.772 131.473 178.749C129.224 178.761 126.975 178.753 124.726 178.745C121.387 178.733 118.048 178.722 114.71 178.774C108.637 178.745 102.565 178.757 96.493 178.768C93.215 178.774 89.9369 178.78 86.6585 178.78C86.1734 178.76 85.6839 178.769 85.1939 178.777C84.0091 178.798 82.821 178.818 81.6839 178.44C79.6726 177.818 78.1032 176.313 76.7239 174.788C77.1014 174.698 77.4877 174.704 77.8733 174.711C78.0212 174.714 78.1691 174.716 78.3163 174.713C79.042 174.719 79.7682 174.719 80.4943 174.72C81.2191 174.72 81.944 174.72 82.6683 174.726C87.5159 174.695 92.3633 174.703 97.2107 174.712C102.281 174.72 107.351 174.729 112.422 174.693C118.21 174.722 123.998 174.714 129.787 174.705C134.288 174.699 138.79 174.693 143.292 174.704C145.969 174.736 148.647 174.719 151.324 174.702C153.924 174.685 156.523 174.668 159.121 174.697C163.678 174.714 168.233 174.707 172.789 174.699C178.569 174.689 184.349 174.68 190.129 174.72C188.904 176.187 187.421 177.505 185.638 178.243C184.295 178.814 182.808 178.796 181.378 178.734C174.851 178.762 168.322 178.758 161.795 178.715ZM163.793 170.571C162.134 170.566 160.475 170.572 158.816 170.578C155.707 170.589 152.597 170.6 149.488 170.539C146.505 170.555 143.521 170.561 140.537 170.566C138.303 170.571 136.069 170.575 133.834 170.584C129.438 170.532 125.041 170.55 120.644 170.569C116.13 170.587 111.616 170.606 107.103 170.549C101.398 170.598 95.6938 170.591 89.9891 170.584C85.5859 170.579 81.1827 170.573 76.7793 170.593L76.6632 170.589C75.7846 170.559 74.7166 170.521 74.2006 169.702C73.6714 168.722 73.6388 167.562 73.6081 166.47L73.6075 166.449C78.6057 166.488 83.6037 166.504 88.6028 166.441C91.3289 166.456 94.0554 166.46 96.7818 166.464C99.0787 166.467 101.376 166.471 103.672 166.481C108.601 166.436 113.531 166.448 118.461 166.459C123.263 166.471 128.066 166.482 132.868 166.441C137.809 166.474 142.75 166.463 147.691 166.453C152.79 166.442 157.889 166.431 162.989 166.467C168.26 166.435 173.531 166.441 178.803 166.446C183.723 166.452 188.643 166.457 193.563 166.432C193.428 166.802 193.323 167.187 193.219 167.571C193.023 168.293 192.827 169.016 192.425 169.65C191.76 170.628 190.465 170.67 189.4 170.634C188.413 170.629 187.425 170.619 186.438 170.61C184.034 170.587 181.631 170.564 179.227 170.594C176.599 170.614 173.97 170.599 171.341 170.584C168.825 170.57 166.309 170.555 163.793 170.571ZM221.442 162.259C221.043 162.126 220.625 162.137 220.212 162.148C220.088 162.151 219.964 162.154 219.842 162.154C218.821 162.162 217.8 162.179 216.779 162.196C213.773 162.246 210.768 162.296 207.765 162.13C207.559 162.112 207.35 162.097 207.14 162.083C205.975 162.001 204.781 161.918 203.762 161.307C203.076 160.917 202.633 160.169 202.627 159.379C202.645 158.007 203.317 156.769 203.961 155.596C205.683 152.625 207.943 149.963 210.612 147.797C213.544 145.396 216.902 143.56 220.376 142.067C220.664 141.936 220.962 141.82 221.26 141.703C222.017 141.408 222.778 141.111 223.396 140.571C224.006 139.972 224.151 139.096 224.286 138.28L224.313 138.117C224.646 136.069 225.544 134.056 227.089 132.628C228.625 131.12 230.729 130.393 232.775 129.869C235.687 129.139 238.953 129.391 241.495 131.076C244.14 132.782 245.84 135.591 246.925 138.477C248.373 142.539 249.295 146.948 248.482 151.248C247.912 154.396 246.222 157.373 243.639 159.299C241.028 161.259 237.75 162.145 234.524 162.316C232.451 162.361 230.377 162.363 228.302 162.365C226.92 162.367 225.538 162.369 224.156 162.383C223.804 162.352 223.447 162.36 223.091 162.368C222.535 162.381 221.98 162.393 221.442 162.259ZM160.749 162.258H160.746C155.899 162.268 151.051 162.277 146.205 162.252C141.138 162.278 136.072 162.273 131.006 162.267C126.843 162.262 122.679 162.258 118.515 162.27C115.682 162.304 112.85 162.289 110.017 162.273C107.326 162.258 104.635 162.243 101.944 162.271C100.283 162.269 98.6213 162.275 96.9599 162.282C94.0408 162.293 91.1216 162.304 88.2027 162.271C85.8135 162.259 83.4237 162.267 81.034 162.276C78.0894 162.286 75.1448 162.297 72.2017 162.268C72.0561 160.98 71.9255 159.686 71.8363 158.389C75.3046 158.415 78.7725 158.405 82.2401 158.395H82.2443C84.9719 158.387 87.6994 158.38 90.4266 158.389C95.0958 158.401 99.7649 158.395 104.434 158.389C109.56 158.383 114.687 158.377 119.813 158.393C121.444 158.393 123.076 158.387 124.707 158.381C128.038 158.37 131.369 158.358 134.701 158.388C144.609 158.375 154.517 158.375 164.425 158.374C169.698 158.374 174.97 158.373 180.242 158.371C182.258 158.399 184.275 158.383 186.292 158.366C189.209 158.343 192.126 158.32 195.039 158.429C194.864 159.703 194.695 160.975 194.53 162.248C192.622 162.25 190.715 162.248 188.807 162.245C184.833 162.24 180.858 162.235 176.885 162.273C171.507 162.236 166.128 162.247 160.749 162.258ZM32.2728 162.356L31.5248 162.336C27.8521 162.067 24.1557 160.659 21.5774 157.972C19.5782 156.009 18.4083 153.299 18.183 150.523C17.4774 144.875 18.695 138.87 22.1627 134.277C23.4234 132.538 24.9861 130.875 27.0678 130.153C29.8189 129.118 32.8149 129.722 35.5598 130.46C37.6966 131.004 39.7041 132.242 40.9321 134.099C41.8712 135.465 42.2969 137.102 42.5303 138.722C42.6918 139.897 43.5223 140.92 44.6167 141.363C46.577 142.172 48.5355 142.998 50.4016 144.008C55.7155 146.827 60.4636 150.987 63.2365 156.384C63.7699 157.456 64.2951 158.656 64.0257 159.875C63.7766 160.834 62.882 161.438 61.9922 161.743C60.205 162.391 58.3066 162.38 56.4252 162.368C55.9041 162.365 55.3843 162.362 54.8685 162.373L52.2904 162.379C48.0315 162.39 43.7727 162.4 39.514 162.43C37.0994 162.484 34.6854 162.42 32.2728 162.356ZM161.763 154.042C159.914 154.049 158.065 154.044 156.216 154.039C153.42 154.031 150.624 154.023 147.828 154.056C141.441 154.046 135.054 154.049 128.668 154.052L128.638 154.052C124.611 154.054 120.585 154.056 116.558 154.054C114.048 154.028 111.537 154.042 109.026 154.057C106.574 154.071 104.122 154.085 101.67 154.062C99.8736 154.064 98.0771 154.06 96.2807 154.057C93.3739 154.051 90.4672 154.045 87.5601 154.064C85.0582 154.088 82.556 154.078 80.0539 154.068C77.6202 154.058 75.1865 154.048 72.7531 154.07C72.6306 153.851 72.508 153.631 72.3873 153.404C72.549 153.274 72.7109 153.141 72.8735 153.008C74.0939 152.008 75.358 150.971 76.9591 150.708C78.8042 150.26 80.7081 150.058 82.6064 150.075C85.4348 150.068 88.2631 150.053 91.0914 150.036C96.4826 150.078 101.875 150.058 107.267 150.038H107.269C112.361 150.018 117.452 149.999 122.543 150.032C127.71 150.004 132.877 150.012 138.044 150.019C142.294 150.025 146.545 150.03 150.796 150.017C153.613 149.998 156.431 150.011 159.249 150.023C162.266 150.036 165.283 150.05 168.3 150.025C170.981 150.003 173.662 150.02 176.343 150.036L176.346 150.036C178.686 150.05 181.027 150.065 183.369 150.054C185.773 150.005 188.175 150.327 190.51 150.89C191.78 151.166 192.77 152.02 193.736 152.854C193.956 153.044 194.175 153.233 194.395 153.413C194.343 153.476 194.298 153.555 194.253 153.636C194.141 153.836 194.025 154.043 193.768 154.009C189.912 154.059 186.056 154.052 182.2 154.046C180.844 154.044 179.487 154.042 178.131 154.042C175.419 154.016 172.707 154.029 169.995 154.043C167.251 154.056 164.507 154.07 161.763 154.042ZM133.681 105.242C133.241 105.082 132.77 105.09 132.313 105.104C129.634 105.104 126.955 105.11 124.275 105.115C119.226 105.126 114.175 105.137 109.126 105.109C95.938 104.897 82.7517 104.628 69.5727 104.125C69.1642 104.101 68.7549 104.088 68.3456 104.074C67.3727 104.042 66.3997 104.01 65.4385 103.843C63.1302 103.479 60.9105 102.717 58.7114 101.954C57.8159 101.64 56.8348 101.029 56.7274 99.9961C56.5969 98.9656 57.1677 98.0817 57.7079 97.2453C57.7898 97.1185 57.871 96.9929 57.9489 96.8679C59.6451 94.1809 61.3276 91.4854 63.0101 88.7899C66.2946 83.5278 69.5791 78.2657 72.9655 73.0668C74.5938 70.5533 76.7616 68.3471 79.3672 66.8435C82.3361 65.1299 85.7672 64.3144 89.1826 64.2547C92.7544 64.2205 96.3264 64.2133 99.8977 64.2061C101.218 64.2034 102.538 64.2008 103.857 64.1968C106.034 64.1921 108.211 64.1777 110.388 64.1633C113.549 64.1424 116.71 64.1215 119.871 64.1303C124.28 64.1473 128.688 64.1391 133.097 64.1309C138.609 64.1207 144.122 64.1105 149.634 64.1496C153.177 64.1285 156.719 64.1391 160.26 64.1498C161.357 64.1531 162.454 64.1564 163.55 64.1587C165.748 64.1994 167.947 64.1907 170.146 64.182C172.97 64.1709 175.794 64.1598 178.618 64.2532C183.637 64.4533 188.612 66.6954 191.838 70.5816C198.776 78.9832 204.639 88.2425 209.519 97.9733C209.792 98.5141 210.036 99.089 210.072 99.7016C210.067 100.399 209.588 100.996 209.017 101.349C208.315 101.793 207.575 102.172 206.825 102.523C206.01 102.9 205.126 103.049 204.247 103.197C203.986 103.241 203.726 103.285 203.467 103.334C200.709 103.833 197.94 104.321 195.137 104.46C192.31 104.568 189.48 104.597 186.65 104.627C184.789 104.647 182.927 104.666 181.065 104.708C166.004 104.971 150.941 105.164 135.877 105.291C135.617 105.28 135.354 105.298 135.091 105.316C134.615 105.348 134.14 105.38 133.681 105.242Z" fill="#F694C1"/>
<path d="M248.13 233.542C247.629 234.665 246.525 235.425 245.331 235.643C244.804 235.791 244.262 235.806 243.72 235.822C243.178 235.837 242.637 235.852 242.112 236C240.908 235.839 239.695 235.869 238.484 235.899C237.886 235.914 237.288 235.928 236.692 235.92C234.513 235.92 232.334 235.926 230.158 235.95C228.972 235.794 227.779 235.806 226.586 235.819C225.941 235.826 225.297 235.833 224.654 235.813C223.036 235.813 221.417 235.808 219.799 235.803C216.144 235.792 212.489 235.781 208.834 235.832C205.953 235.87 203.072 235.876 200.192 235.841C198.734 235.784 197.064 235.582 196.1 234.354C195.056 233.005 195.02 231.228 194.987 229.583C194.984 229.452 194.982 229.322 194.979 229.192C195.02 225.97 194.996 222.746 194.938 219.522C216.825 221.452 228.676 220.367 248.755 212.896C248.754 215.894 248.744 218.893 248.734 221.891C248.728 223.969 248.721 226.047 248.717 228.124C248.711 228.473 248.714 228.826 248.716 229.18C248.727 230.662 248.738 232.166 248.13 233.542Z" fill="#8F4869"/>
<path d="M18.1054 228.376C18.1531 223.552 18.1067 218.726 18.0565 213.903C37.5769 222.318 49.6683 222.263 71.8536 219.593C71.889 223.426 71.8697 227.257 71.8223 231.089C71.7688 232.64 71.2121 234.349 69.7942 235.17C68.2868 236.096 66.4576 235.816 64.7782 235.854C57.0543 235.938 49.3291 235.864 41.6045 235.875C35.3964 235.938 29.1889 235.856 22.9803 235.868C21.4683 235.887 19.771 235.412 18.943 234.046C17.8766 232.356 18.1794 230.272 18.1054 228.376Z" fill="#8F4869"/>
</g>
</g>
</g>
<defs>
<filter id="filter0_i_0_1" x="6" y="11" width="252" height="243" filterUnits="userSpaceOnUse" color-interpolation-filters="sRGB">
<feFlood flood-opacity="0" result="BackgroundImageFix"/>
<feBlend mode="normal" in="SourceGraphic" in2="BackgroundImageFix" result="shape"/>
<feColorMatrix in="SourceAlpha" type="matrix" values="0 0 0 0 0 0 0 0 0 0 0 0 0 0 0 0 0 0 127 0" result="hardAlpha"/>
<feMorphology radius="8" operator="erode" in="SourceAlpha" result="effect1_innerShadow_0_1"/>
<feOffset/>
<feGaussianBlur stdDeviation="2.5"/>
<feComposite in2="hardAlpha" operator="arithmetic" k2="-1" k3="1"/>
<feColorMatrix type="matrix" values="0 0 0 0 0 0 0 0 0 0 0 0 0 0 0 0 0 0 0.25 0"/>
<feBlend mode="normal" in2="shape" result="effect1_innerShadow_0_1"/>
</filter>
<filter id="filter1_d_0_1" x="6.48877" y="56" width="254" height="188" filterUnits="userSpaceOnUse" color-interpolation-filters="sRGB">
<feFlood flood-opacity="0" result="BackgroundImageFix"/>
<feColorMatrix in="SourceAlpha" type="matrix" values="0 0 0 0 0 0 0 0 0 0 0 0 0 0 0 0 0 0 127 0" result="hardAlpha"/>
<feOffset dy="4"/>
<feGaussianBlur stdDeviation="2"/>
<feComposite in2="hardAlpha" operator="out"/>
<feColorMatrix type="matrix" values="0 0 0 0 0 0 0 0 0 0 0 0 0 0 0 0 0 0 0.25 0"/>
<feBlend mode="normal" in2="BackgroundImageFix" result="effect1_dropShadow_0_1"/>
<feBlend mode="normal" in="SourceGraphic" in2="effect1_dropShadow_0_1" result="shape"/>
</filter>
<radialGradient id="paint0_radial_0_1" cx="0" cy="0" r="1" gradientUnits="userSpaceOnUse" gradientTransform="translate(132 132.5) rotate(90) scale(121.5 126)">
<stop stop-color="#553A7C"/>
<stop offset="1" stop-color="#220849"/>
</radialGradient>
<clipPath id="clip0_0_1">
<rect width="264.57" height="264.57" fill="white"/>
</clipPath>
</defs>
</svg>
