<?xml version="1.0" encoding="utf-8"?>

<!DOCTYPE svg PUBLIC "-//W3C//DTD SVG 1.1//EN" "http://www.w3.org/Graphics/SVG/1.1/DTD/svg11.dtd">
<svg version="1.1" id="Layer_1" xmlns="http://www.w3.org/2000/svg" xmlns:xlink="http://www.w3.org/1999/xlink" x="0px" y="0px"
	 viewBox="0 0 2560 1214.282" style="enable-background:new 0 0 2560 1214.282;" xml:space="preserve">
<g>
	<path d="M2527.9,117.857c1.617-1.508,3.983-0.333,5.892-0.158c-1.375,2.842-3.742,4.975-5.717,7.367
		c1.008,2.267,2.642,4.108,5.192,4.617c-0.133,0.808-0.233,1.608-0.292,2.417c-1.267,0.658-2.508,1.333-3.708,2.025
		c1.333,1.95,2.625,3.942,3.858,5.983c-0.033,0.492-0.092,1.492-0.125,1.992c-2.092,2.375-5.092,3.067-8.117,2.692
		c1.033,0.208,2.108,0.425,3.208,0.642c1.583,3.067,1.892,6.433,0.808,9.717c0.575,3.358,0.85,7.208,3.608,9.608
		c0.425-0.892,0.942-1.775,1.442-2.667c-0.267-1.258-0.508-2.517-0.658-3.775c2.924-2.713,5.21-12.597,5.333-13.692
		c2.35-0.217,4.733-0.55,7.092-0.983c-0.008,0.442-0.025,1.325-0.033,1.767c-1.05,0.75-2.208,1.375-2.892,2.475
		c0.683,1.608,2.433,2.4,3.742,3.475c-0.233,2.508-0.292,5.017-0.259,7.533c-0.883,1.042-1.775,2.092-2.6,3.142
		c1.533,2.083,2.833,4.342,3.408,6.908c0.967,0.125,1.975,0.25,3.009,0.375c-1.75,4.317-2.3,9.083-4.817,13.067
		c1.5,1.242,3.108,2.4,4.717,3.55c2.633,0.017,5.283-0.033,7.958-0.175c-0.258,1.733-0.467,3.467-0.625,5.208
		c-1.2-0.025-2.367-0.05-3.5-0.075c-0.975,2.092-1.767,4.267-2.492,6.45c-0.583,0.125-1.75,0.383-2.333,0.508
		c0.275,2.283,0.567,4.567,0.842,6.858c2.191-0.45,3.708-2.092,5.092-3.733c1.025-0.017,2.075-0.025,3.167-0.033
		c0.142,1.842,0.417,3.733,1.9,5.042v1008.3H0v-186.917c1.108-0.833,2.233-1.608,3.35-2.4c0.042-0.567,0.117-1.7,0.15-2.275
		c10.367-0.679,10.288,2.173,11.283-0.725c3.625-0.292,7.233,0.075,10.842,0.425c0.542-0.558,1.058-1.125,1.55-1.7
		c1.15-0.683,2.292-1.383,3.417-2.083c1.75-0.008,3.5,0.017,5.25,0.067c0.967-4.142,1.117-8.45,2.792-12.4
		c1.933-1.25,4.083-2.058,6.358-2.392c5.468,2.187,2.924,0.747,7.692,3.6c-0.475,1.458-1.217,2.825-2.267,3.967
		c1.075,0.233,2.142,0.475,3.208,0.75c0.817,1.308,1.725,2.558,2.775,3.7c0.025,0.408,0.067,1.225,0.083,1.625
		c0.367,0.275,1.092,0.817,1.45,1.083c2.142-1.383,4.483-0.933,6.225,0.825c-0.033,1.183-0.058,2.375-0.092,3.583
		c1.008,0.583,2.008,1.192,3.008,1.808c1.458,0.267,2.933,0.642,3.542,2.208c2.7-0.633,5.358-1.458,8.05-2.108
		c0.675,1.258,1.367,2.525,2.058,3.8c0.083-1.192,0.15-2.383,0.217-3.55c1.267-0.017,2.525-0.025,3.792-0.025
		c0.383,2.742,1.342,5.583,0.117,8.275c2.475-1.167,5.592-0.408,7.283,1.742c0.592-0.708,1.192-1.392,1.783-2.067
		c4.465,2.251,1.585,4.543,7.708,9.033c0.358-0.483,1.075-1.45,1.433-1.933c0.45-0.025,1.342-0.083,1.783-0.117
		c0.4,1.458,0.792,2.933,1.15,4.425c-0.792,0.567-1.583,1.142-2.367,1.742c1.442,0.658,2.883,1.333,4.325,2.017
		c1.475-0.567,2.958-1.117,4.433-1.667c-0.108-3.275,1.117-6.3,2.4-9.242c-0.367-2.617-0.683-5.25-1.425-7.783
		c-1.383-0.775-2.733-1.592-4.083-2.375c0-0.433,0-1.292,0-1.717c0.717-0.742,1.433-1.475,2.158-2.192
		c-1.842-0.033-3.683-0.025-5.525-0.008c0.299-19.598,2.385-12.59,1.625-23.042c1.275-0.05,2.542-0.083,3.817-0.117
		c-0.575-0.342-1.733-1.033-2.308-1.375c0.342-1.625,0.717-3.233,1.108-4.833c1.083-0.483,2.333-0.725,3.183-1.592
		c0.283-2.333,0.108-4.675,0.1-7c0.575-0.033,1.717-0.092,2.292-0.117c0.492-1.517,0.975-3.033,1.458-4.533
		c-0.625,0.033-1.883,0.092-2.517,0.117c1.67-5.58,1.001-2.2,1.558-6.317c-3.921-0.687-8.436-0.499-10.575-10.258
		c-2.25,0.392-4.525,0.683-6.808,0.775c-0.725-1.325-1.458-2.633-2.217-3.925c-2.142-0.267-4.258-0.633-6.342-1.183
		c-0.075-0.442-0.217-1.333-0.292-1.775c-2.167-2.058-4.092-4.358-5.842-6.767c0.717-0.892,1.433-1.767,2.167-2.625
		c-0.017-1.95,0.033-3.883,0.225-5.808c1.767,0.058,3.525,0.15,5.292,0.242c1.558,2.883,3.767,5.342,5.675,8
		c0.583,0.05,1.75,0.158,2.333,0.217c0.8-1.25,1.608-2.483,2.433-3.7c-0.025-1.242-0.05-2.475-0.075-3.7
		c-0.683-0.233-1.358-0.458-2.033-0.667c1.575-0.767,3.117-1.592,4.617-2.483c0.008-1.45,0.025-2.892,0.042-4.317
		c-1.458-0.575-2.817-1.367-3.958-2.433c-0.692-1.225-1.525-2.35-2.35-3.458c-1.717-0.567-3.408-1.192-5.083-1.833
		c-2.1-2.55-5.25-3.667-8.267-4.717c-1.108-1.325-2.208-2.658-3.308-3.975c1.158-1.175,2.317-2.342,3.45-3.525
		c1.192,2.033,3.192,3.233,5.275,4.183c2.125-0.025,4.242,0,6.358-0.058c0.3-1.808,0.625-3.592,0.967-5.375
		c-0.692-2.625-1.292-5.267-1.767-7.925c0.917-3.142-0.275-6.225-2.175-8.725c-0.342-1.883-0.717-3.758-1.133-5.617
		c1.4-1.242,2.867-2.4,4.417-3.45c1.967,1.325,3.975,2.592,6.025,3.808c-0.475,0.517-0.95,1.05-1.425,1.592
		c-0.1,2.642-1.133,5.542,0.367,8c1.175,2.058,1.7,5.275,4.692,5.258c0.15-1.533,0.292-3.033,0.425-4.542
		c0.483-0.575,0.958-1.133,1.442-1.683c-0.033-0.725-0.1-2.175-0.133-2.892c0.9-1.05,1.808-2.1,2.733-3.1
		c0.017-0.35,0.05-1.033,0.067-1.383c-0.625-1.092-1.292-2.15-1.708-3.325c0.267-1.308,0.942-2.483,1.475-3.675
		c-0.075,0.508-0.217,1.542-0.292,2.058c3.1-0.017,6.217-0.142,9.317,0.117c-0.95,2.775-1.725,5.617-1.942,8.558
		c0.658-0.15,1.958-0.45,2.617-0.608c-0.417,0.308-1.242,0.933-1.65,1.242c0.133,1.533,0.258,3.083,0.375,4.65
		c1.9,1.208,4.133,1.267,6.308,1.175c0.933,3.208,1.258,6.542,1.133,9.883c1.592,0.817,3.233,1.525,4.917,2.183
		c3.25-6.867,0.667-14.592,1.808-21.808c-1.325-1.508-1.933-3.383-2.108-5.342c2.492-0.408,6.175,0.958,7.458-1.933
		c0.592,0.15,1.183,0.317,1.775,0.5c0.45,1.492,0.908,2.983,1.367,4.492c1.092,0.075,2.175,0.175,3.275,0.275
		c0.458,0.533,0.917,1.075,1.383,1.633c-0.367,2.142-0.383,4.333,0.025,6.492c0.517,0.083,1.542,0.242,2.058,0.325
		c2.117,1.783,5.042,1.4,7.617,1.558c0.625,1.033,1.233,2.067,1.833,3.142c1.825-0.183,3.65-0.383,5.475-0.583
		c-0.092-1.025-0.175-2.025-0.258-3.017c-9.884-4.214-5.092-4.674-10.008-9.283c0.342-7.217-0.608-14.75-4.2-21.125
		c-0.233-0.108-0.7-0.325-0.933-0.433c0.917-0.642,1.833-1.275,2.75-1.917c0.5-0.05,1.5-0.158,2-0.217
		c-0.175-3.142-1.608-5.958-2.658-8.85c-0.083-2.117,1.083-4.083,1.65-6.092c2.575-0.35,5.225-0.967,7.783-0.175
		c0.375,4.517-2.667,8.817-1.242,13.325c1.873,5.844,2.62,1.427,9.85,1.625c0.317,0.408,0.942,1.225,1.258,1.633
		c1.117,0.008,2.233,0.017,3.35,0.05c1.558-1,3.142-1.967,4.683-3c0.408-0.083,1.217-0.242,1.625-0.325
		c0.792-3.192,1.275-6.608-0.15-9.7c-2.298-5.457,1.203-6.766-1.433-17.033c-2.086-3.484-5.123-23.752-5.825-25.383
		c0.008-1.108,0.017-2.208,0.042-3.292c0.517,0.008,1.55,0.033,2.067,0.042c-0.3-1.017-0.6-2.008-0.883-3
		c0.667-2.808,0.858-5.967-1.167-8.283c0.267,0.108,0.817,0.317,1.083,0.425c0.142-1.3,0.267-2.583,0.4-3.858
		c2.167,0.083,4.333,0.183,6.492,0.35c0.158,4.333-0.183,8.7-1.583,12.833c1.025,0.908,1.533,2.142,1.783,3.483
		c1.35,0.258,2.708,0.475,4.075,0.717c0,0,1.666-7.992,2.583-18.008c0.433-0.192,1.3-0.575,1.733-0.758
		c3.582-8.153,0.194-3.102,1.85-18.067c1.833-0.842,3.675-1.683,5.55-2.425c1.783-3.008,0.967-6.542,0.65-9.792
		c1.733-0.567,3.5-1.067,5.125-1.9c0.258-4.35-0.275-8.708,0.092-13.058c1.908,1.333,3.867,2.617,5.933,3.7
		c0.125,3.333-0.183,6.883,1.308,9.983c1.233-0.067,2.45-0.267,3.675-0.45c0.05-2.775,0.217-5.525,0.5-8.275
		c1.083,0.008,2.175,0.017,3.267,0.042c0.258-0.342,0.783-1.033,1.042-1.375c0.083-1.1,0.175-2.183,0.267-3.267
		c1.458-0.167,2.925-0.317,4.392-0.467c0.7-0.683,1.417-1.35,2.142-2c-0.236-5.894,5.47-13.95,2.458-21.525
		c2.452-1.497,13.273-1.4,15.542-1.308c-1,1.017-2.392,1.792-2.992,3.133c-0.242,3.017,0.183,6.058-0.125,9.092
		c-0.217,5.292-2.183,10.817,0.092,15.933c1.892,0.867,3.875,1.492,5.958,1.725c0.492-2.6,0.983-5.2,1.817-7.708
		c-0.142-0.817-0.292-1.625-0.433-2.425c1.733,0.717,3.5,1.342,5.342,1.725c-0.492-1.875-0.85-3.992-2.9-4.792
		c1.825-2.167,4.2-0.775,6.475-0.45c2.342-0.467,4.3-2.008,6.608-2.608c1.275,0.108,2.333,0.908,3.492,1.408
		c-0.358,1.75-0.8,3.55-2.258,4.733c0.025,1.65,0.125,3.308,0.008,4.967c-0.167,2.308-2.067,4.217-1.85,6.592
		c0.858,0.792,1.842,1.458,2.792,2.175c0.3,3.508,1.383,24.583,1.617,31.65c1.058,1.167,2.083,2.358,3.092,3.575
		c-0.525,2.825-0.967,5.683-1.667,8.492c2.175-0.092,4.35-0.158,6.525-0.292c1.604-2.696,16.525-15.055,17.525-15.775
		c0.033-0.292,0.1-0.875,0.133-1.167c0.542-0.008,1.633-0.042,2.175-0.05c-0.092,0.442-0.292,1.333-0.392,1.783
		c0.7-0.05,2.1-0.142,2.8-0.192c0.9,1.642,1.758,3.308,2.567,5.017c1.267,0.25,2.533,0.525,3.8,0.817
		c-0.633,0.092-1.9,0.283-2.533,0.375c0.092,2.65,0.758,5.742-1.6,7.667c0.034,1.566-1.522,20.616-1.642,21.817
		c0.45,1.467,0.892,2.942,1.317,4.433c2.658-0.033,5.317-0.017,7.983,0.025c0.375,2.383,0.717,4.775,0.892,7.2
		c0.65-0.067,1.958-0.192,2.608-0.258c0.892-2.317,2.225-4.417,3.967-6.175c-0.058-0.583-0.175-1.767-0.233-2.35
		c0.642-0.767,1.283-1.508,1.925-2.242c0.075-0.542,0.208-1.608,0.283-2.142c1.258-1.208,2.392-2.542,3.4-3.958
		c0.833-0.1,1.667-0.175,2.517-0.233c0.108,0.45,0.325,1.358,0.433,1.817c0.567-0.033,1.708-0.108,2.283-0.142
		c0.233,1.633,0.283,3.5,2.15,4.125c-0.383,0.392-0.75,0.792-1.117,1.2c-0.208,0.75-0.408,1.5-0.6,2.267
		c-1.4,1.592-2.717,3.267-4.092,4.892c-0.483,2.958-1.2,5.892-2.333,8.683c-0.658,0.033-1.958,0.1-2.617,0.133
		c0.35,4.316,4.878,8.041,8.533,10.4c0.508,0.042,1.517,0.142,2.025,0.192c0.517,0.575,1.05,1.158,1.583,1.742
		c0.1,1.983,0.283,3.975,0.583,5.95c-1.925,0.075-3.842,0.383-5.55,1.325c-1.992,0.217-3.925,0.742-5.642,1.8
		c-1.883,0.075-3.758,0.125-5.633,0.233c-1.358,1.542-2.983,2.817-4.667,3.992c-0.867,2.908-1.825,5.808-2.192,8.85
		c-1.225,0.575-2.45,1.15-3.675,1.742c-0.258,1.242-0.525,2.492-0.775,3.758c-0.558,0.042-1.658,0.125-2.217,0.167
		c0.183,0.358,0.558,1.058,0.742,1.417c-0.567,0.042-1.7,0.125-2.258,0.175c0.617,1.817,1.3,3.633,2.092,5.4
		c0.55,0.025,1.642,0.075,2.183,0.1c0.825,2.292,1.708,4.567,2.383,6.925c0.5,0,1.5,0.008,2,0.017
		c-0.008-1.692,0.008-3.367,0.042-5.033c0.608-0.642,1.217-1.275,1.817-1.908c1.742-0.075,3.483-0.125,5.233-0.15
		c-0.333,0.333-0.983,1-1.308,1.333c0.183,2.992,0.208,6.008,0.167,9.017c1.3,0.025,2.608,0.05,3.917,0.083
		c0.108-1.092,0.225-2.183,0.35-3.258c0.45-0.267,1.367-0.808,1.825-1.075c-0.125-0.642-0.383-1.917-0.508-2.55
		c0.592-0.075,1.783-0.217,2.375-0.283c0.558-1.933,1.083-3.967,2.6-5.383c0.183-1.108,0.358-2.2,0.533-3.283
		c-1.308,0.283-2.025-0.033-2.15-0.967c0.225-0.083,0.675-0.258,0.9-0.342c0.792-0.958,1.575-1.917,2.35-2.875
		c-0.4-4.033,2.275-7.167,4.075-10.483c0.192,0.558,0.383,1.133,0.583,1.717c1.567,0.067,3.133,0.142,4.7,0.233
		c-0.025,1.375-0.05,2.758-0.092,4.167c0.458,0.275,1.375,0.842,1.825,1.117c-0.067,1.058-0.133,2.125-0.192,3.208
		c0.683-0.192,1.367-0.367,2.067-0.525c2.383,3.658,1.542,8.317,3.258,12.267c0.567,0.042,1.692,0.125,2.258,0.167
		c0.008-1.367,0.025-2.708,0.05-4.05c0.592,0.117,1.783,0.35,2.375,0.467c0.483-1.775,0.992-3.525,1.517-5.267
		c0.683,0.008,2.042,0.033,2.725,0.05c1.683-4.225,2.008-8.75,2.633-13.192c1.9,0.008,3.833,0.142,5.717-0.25
		c0.217-1.542,0.125-3.1,0.142-4.625c1.308-0.733,2.617-1.467,3.942-2.167c0.383,4.025-0.225,8.25,1.908,11.925
		c0.542-0.033,1.617-0.108,2.158-0.15c0.017,1.733,0.033,3.433,0.092,5.192c2.042-0.833,3.725-2.275,4.775-4.217
		c-2.6-1.967-0.225-5.233-1.85-7.625c-0.817-4-3.608-7.692-2.45-11.908c-0.617-0.683-1.233-1.35-1.842-2.017
		c0.392-2.642-0.667-5.592-3.817-5.458c1.2-0.15,2.358-0.4,3.558-0.533c-0.442-2.842-3.383-2.217-5.483-2.517
		c0.017-0.517,0.033-1.542,0.05-2.05c-2.167-3.533-2.617-7.675-3.133-11.692c0.075-0.525,0.225-1.592,0.3-2.117
		c0.408-0.242,1.225-0.717,1.633-0.95c0.125-4.483-0.058-8.958-0.2-13.433c-1.342-2.108-1.75-4.567-1.308-7.008
		c-0.433-0.975-0.867-1.942-1.283-2.9c0,0-0.341-5.549-0.642-22.5c1.325,0,2.667,0,4,0.033c0.758,1.442,2.158,2.1,3.667,2.508
		c-1,7.443,3.46,15.425,3.675,22.767c0.925,1.283,1.908,2.533,2.9,3.792c1.417-0.017,2.842-0.025,4.267-0.042
		c0.825-1.092,2.05-1.575,3.317-1.917c0.683-0.625,1.358-1.242,2.05-1.85c2.05-6.333,0.967-12.983-0.733-19.25
		c0.533-0.108,1.6-0.333,2.125-0.442c0.933-1.017,1.875-2.017,2.817-3.008c1.583,0.233,3.283,0.167,4.767,0.867
		c1.417,2.842,2.733,5.983,2.342,9.233c1.525,1.267,3.075,2.525,4.675,3.717c-0.342,1.117-0.692,2.242-1.05,3.367
		c0.033,0.733,0.1,2.192,0.133,2.925c1.708-0.317,3.95,0.075,4.792-1.875c0.458-0.025,1.392-0.067,1.85-0.092
		c0.058-0.892,0.125-1.775,0.2-2.642c2.633-1.183,0.058-4.5,1.4-6.633c0.2-4.25,2.542-8.467,1.217-12.692
		c0.258-0.867,0.533-1.717,0.817-2.558c-1.358-2.542-2.758-5.083-3.458-7.892c-0.342-0.275-1.025-0.825-1.367-1.092
		c0.025-0.508,0.058-1.525,0.075-2.025c-0.517-0.533-1.025-1.058-1.533-1.575c-2.083-5.642-1.508-11.7-0.233-17.45
		c2.925,0.092,5.867,0,8.767-0.5c0.293-12.001,3.258-30.364,3.583-31.192c2.592-1.083,5.383-1.375,8.175-1.158
		c2.314,9.423-1.453,12.735-1,19.525c4.175-0.192,8.367-0.233,12.517,0.383c2.558,4.508,2.867,9.85,2.742,14.917
		c1.958-0.867,4.108-2.875,6.283-1.375c1.208,1.95,1.7,4.3,1.85,6.583c-3.332,15.359-3.867,20.925-3.867,20.925
		c1.5,2.208,3.217,4.342,3.975,6.967c0.917,1.05,1.533,2.658,3.058,2.967c0.375-2.058,0.592-4.133,1.017-6.167
		c-0.542-1.925-0.808-3.908-0.483-5.875c-0.439-1.003-3.411-8.966-2.7-22.767c9.787-1.804,7.73-3.113,8.05-7.65
		c0.783-1.3,1.283-2.767,0.758-4.25c-1.05-3.875,0.358-7.767,0.733-11.625c2.483-0.092,4.967,0.025,7.442,0.242
		c0.18,0.403,0.118,23.702,1.25,28.758c2.525-0.158,5.067-0.217,7.608-0.175c2.236-5.276,4.129-3.365,6.608-2.442
		c-0.383-0.317-1.142-0.942-1.525-1.258c0.167-1.483,0.333-2.95,0.492-4.417c0.542-0.317,1.608-0.958,2.142-1.275
		c-0.65-2.458-2.275-4.433-4.333-5.858c-1.108-1.95-2.15-3.933-3.092-5.958c-0.417-0.133-1.233-0.408-1.65-0.542
		c-1.392-5.025-3.742-9.883-3.633-15.217c1.908-0.9,3.983-1.217,6.083-1.208c1.717,5.275,3.375,10.858,7.483,14.833
		c0.992-0.175,1.992-0.283,2.975-0.525c2.497-4.886-6.519-20.319-4.058-33.35c1.367-0.017,2.733-0.025,4.117-0.017
		c1.042-0.65,2.092-1.283,3.158-1.9c1.337-6.49,2.047-16.155,2.083-17.542c1.758-0.433,3.558-0.658,5.367-0.783
		c1.283-1.242,2.533-2.517,3.75-3.817c-0.292-1.275-1.2-2.608-0.492-3.9c1.817-3.658,1.792-7.933,3.958-11.442
		c-0.225-1.717-0.483-3.433-0.742-5.133c0.708-0.55,1.417-1.1,2.133-1.642c0.383-4.092-0.025-8.258,1.158-12.25
		c10.428,2.564,10.008,5.231,10.575,6.383c-1.025,2.208-1.733,4.542-2.292,6.908c0.367,3.367,0.1,6.758-0.45,10.092
		c1.917,0.175,4.167-0.217,5.583,1.442c0.842,0.142,1.7,0.292,2.558,0.45c-0.058,6.517-0.625,13.283-3.383,19.292
		c0.492,3.325,0.267,6.733-0.875,9.917c1.075,0.958,2.183,1.9,3.308,2.833c0.442,4.775-1.85,9.25-2,14.017
		c1.7-1.917,4.433-1.075,6.667-1.2c0.583-1.675,1.183-3.333,1.8-4.983c1.925-0.017,3.858-0.025,5.8-0.017
		c-0.15-4.275,0.317-8.525,1.05-12.725c-0.258-0.417-0.783-1.25-1.05-1.667c0.35-1.625,0.683-3.258,1-4.883
		c2.492-2.233,5.675-1.458,8.55-0.55c0.002,0.022-2.596,17.984-1.242,31.258c-0.667,4.142,1.275,8.075,0.808,12.2
		c0.483,0.083,1.442,0.258,1.925,0.35c0.083,1.4,0.183,2.817,0.3,4.242c5.708-7.254-0.059-12.374,2.692-19.85
		c1.858,0.042,3.717,0.075,5.575,0.1c0.342,0.95,0.7,1.933,1.058,2.908c0.308-1.017,0.617-2.025,0.942-3.025
		c1.508,0.025,3.017,0.042,4.542,0.092c-3.023-5.32-7.549-36.508-6.067-42.825c2.258,0.633,4.625,0.992,6.808,1.9
		c0.115,1.63-1.318,15.9,2.692,21.333c0.5-1.183,1.017-2.35,1.55-3.508c1.033-0.042,2.075-0.075,3.117-0.1
		c0.887-3.576,0.639-17.498,4.933-27.95c0.45-4.7-0.925-9.775,1.367-14.167c1.767-2.933-1.683-6.367-0.125-9.233
		c2.375-1.267,5.4-0.433,8.033-0.6c0.588,6.972-1.041,23.563-1.542,25.05c0.292,0.35,0.883,1.058,1.183,1.408
		c0.408,4-2.725,8.225-0.242,11.883c-0.45,1.617-1.15,3.142-1.983,4.6c0.092,0.85,0.192,1.7,0.308,2.575
		c-1.097,2.373-3.722,15.302-2.567,25.133c2.292-0.942,3.908-2.75,4.817-5.017c0.283-0.142,0.85-0.433,1.142-0.575
		c0.142-1.383,0.242-2.75,0.542-4.092c5.678-3.106,5.304,3.643,5.867,7.275c-2.692,4.75-6.358,8.775-9.908,12.875
		c-0.008,0.842,0,1.692,0.008,2.55c0.8,0.633,1.617,1.275,2.442,1.925c0.675,3.492,0.35,7.192,1.717,10.542
		c1.017-3.642,1.992-7.292,3.25-10.85c1.95-0.175,3.908-0.483,5.767-1.15c-0.307-7.29,6.54-14.764,7.392-26.575
		c2.6-0.792,5.175-0.142,7.383,1.35c0.5,7.592-3.867,14.242-4.625,21.658c1.717-0.192,3.442-0.342,5.175-0.458
		c3.601,19.736,3.35,6.272,3.35,18.917c5.82-10.966,11.316-35.952,11.442-43.758c2.325,0.025,4.65,0.058,6.983,0.117
		c0.45,0.742,0.908,1.492,1.375,2.25c-4.046,28.568-6.978,21.587-0.942,26.767c0.35,2.287,1.531,3.287-4.475,15.892
		c2.033-0.067,4.083-0.092,6.125-0.1c1.133,3.717-0.35,7.192-2.133,10.408c-2.767,1.925-5.108,4.358-7.267,6.925
		c1.4-0.292,2.817-0.567,4.233-0.833c0.517,0.733,1.05,1.475,1.592,2.225c0.1,2.133,0.267,4.35,1.475,6.2
		c-1.125,3.767-3.417,7.258-2.683,11.383c0.408,0.292,1.225,0.883,1.633,1.175c0.05,0.958,0.1,1.917,0.158,2.892
		c-1.092,0.367-2.175,0.75-3.258,1.142c0.758,0.142,1.525,0.3,2.3,0.467c3.467-3.117,6.325-6.825,9.117-10.525
		c2.45,1.158,5.242,1.775,7.358,3.542c1.15,4.392-2.217,8.233-3.075,12.4c-4.383,2.583-8.367,5.867-11.45,9.942
		c-2.2,0.742-4.425,1.442-6.675,2.033c0.508,0.025,1.525,0.067,2.033,0.092c-3.375,3.4-7.617,5.833-11.792,8.117
		c-0.083,1.283-0.167,2.567-0.25,3.867c0.708,1.092,1.433,2.175,2.175,3.267c-0.1,0.592-0.292,1.767-0.392,2.35
		c0.825,2.358,0.75,4.858-0.742,6.958c0.525,0.175,1.575,0.525,2.1,0.7c0.042,1.117,0.1,2.242,0.158,3.375
		c3.458-1.342,7.167,0.308,10.642-0.958c0.333,0.75,0.658,1.517,1,2.283c0.5,0.208,1.5,0.625,2,0.825
		c1.067-0.15,2.125-0.292,3.208-0.4c1.175,2.308,3.975,1.375,6.058,1.617c4.339,7.357,3.44,4.275,9.283,3.075
		c4.811-8.279,7.647-2.858,12.992-2.883c0.85,0.833,1.917,1.383,3.033,1.833c-0.725-1.85-0.542-3.667,0.833-5.125
		c-0.275-0.75-0.55-1.5-0.808-2.233c3.158-1.375,4.533-4.708,6.558-7.258c-0.483-1.25-0.942-2.492-1.383-3.725
		c2.733-0.85,6.883-3.442,8.542,0.4c0.45-0.025,1.35-0.083,1.8-0.117c0.208-3.975,0.558-8.108,3.033-11.408
		c2.467-0.017,4.95-0.033,7.433-0.142c1.775,3.317,1.908,7.492-0.55,10.525c-0.2,1.875-0.467,3.75-0.842,5.608
		c0.975,4.108-0.667,8.05-1.558,12.008c0.5,2.758,0.242,5.583-0.275,8.333c0.917-1.633,1.833-3.275,3.117-4.642
		c0.042-0.442,0.125-1.317,0.167-1.758c7.726-3.281,5.789-2.693,10.625-0.583c-0.133,2.733-0.2,5.483-0.117,8.233
		c-2.875,0.933-2.942,4.033-3.958,6.383c-1.183,1.442-2.9,2.308-4.367,3.425c0.033,0.525,0.1,1.583,0.133,2.117
		c-1.333,0.292-2.658,0.608-3.975,0.925c0.775,3.683,0.433,7.467,0.608,11.208c-1.975,1.517-3.25,3.692-4.925,5.492
		c0.017,0.608,0.067,1.825,0.092,2.442c0.317-0.6,0.942-1.792,1.258-2.383c2.4,0.75,4.808,1.508,7.267,2.117
		c-0.342-1.533-0.683-3.033-1.008-4.542c1.683-1.308,1.933-3.567,3.192-5.15c1.342-0.492,2.783-0.592,4.2-0.825
		c0,0.567-0.017,1.708-0.017,2.275c0.642-0.9,1.3-1.792,1.967-2.658c-0.467-1.792-0.833-3.592-1.05-5.408
		c0.983-1.383,1.808-2.867,2.542-4.383c1.333-0.442,2.683-0.825,4.058-1.142c1.7,1.767,3.65,3.267,5.75,4.558
		c-0.083,0.825-0.167,1.658-0.225,2.5c-0.858,0.808-1.717,1.6-2.55,2.433c1.192,0.558,2.392,1.117,3.617,1.658
		c1.233-2.133,1.992-4.475,2.175-6.925c0.517-0.517,1.058-1.017,1.6-1.5c0.442-3.45,0.483-6.967,1.483-10.317
		c1,0.033,2,0.075,3.017,0.125c0.517-2.192,1.092-4.55,3.283-5.65c0.825,0.825,1.683,1.667,2.542,2.5
		c-1.208-2.167-2.733-4.167-3.658-6.458c0.417-2.1,1.242-4.092,1.75-6.158c1.208-1.367,2.483-2.675,3.842-3.892
		c-0.517-1.692-1.058-3.367-1.575-5.042c-0.65,0.017-1.958,0.042-2.608,0.058c0.008-2.5,0.042-4.992,0.092-7.475
		c1.017-0.783,2.033-1.558,3.05-2.342c0.752-2.164-0.853-8.153,8.933-3.075c-0.425-1.233-0.825-2.442-1.242-3.65
		c0.192-0.775,0.383-1.542,0.592-2.3c-0.917-0.167-1.833-0.317-2.733-0.467c0.717-1.308,1.475-2.575,2.242-3.85
		c-0.392-0.258-1.192-0.792-1.592-1.05c-0.05-0.525-0.15-1.583-0.192-2.108c1.067-0.042,2.15-0.067,3.233-0.092
		c-0.292-3.092,0.667-6.008,3.017-8.075c1.867,0.058,3.733,0.117,5.617,0.183c0.258-0.417,0.767-1.267,1.025-1.683
		c0.85-0.075,1.708-0.133,2.575-0.183c0.767-1.467,1.567-2.917,2.375-4.35c-2.385-3.818-6.018-14.678-6.7-25.458
		c2.608-1.842,5.633-0.467,8.383,0.217c0.942,3.192,1.258,6.542,0.842,9.867c0.608-0.025,1.817-0.067,2.425-0.083
		c0.45,1.008,0.908,2.025,1.375,3.058c1.45,0.567,2.908,1.167,4.35,1.817c0.833,1.225,1.725,2.433,2.642,3.625
		c0.133,0.833,0.275,1.683,0.442,2.55c1.325,0.983,1.892,2.508,2.233,4.083c0.875,1.275,1.833,2.483,2.842,3.683
		c0.05-0.575,0.133-1.725,0.183-2.3c1.458-0.125,2.908-0.258,4.392-0.358c0.409-13.328,3.923-24.505-0.208-30.483
		c1.042-2.558,0.658-5.2-0.35-7.692c1.467-0.5,2.942-0.95,4.433-1.383c-2.918-4.157-0.875,3.264-3.542-13.175
		c0.992-0.467,2.008-0.933,3.017-1.392c0.967-1.167,1.9-2.842,3.658-1.833c1.367,3.617,1.367,7.6,2.908,11.175
		c-0.525,1.417-1.05,2.85-1.575,4.275c0.592,0.592,1.2,1.192,1.817,1.808c0.217,4.817,0.267,9.683,1.167,14.45
		c0.575-1.042,1.158-2.067,1.75-3.075c0.175-1.325,0.392-2.625,0.617-3.925c1.242-0.108,2.5-0.2,3.775-0.283
		c-3.356-8.786-1.471-0.748-5.9-10.483c-0.042-0.467-0.133-1.4-0.175-1.867c-0.692-1.4-1.35-2.792-1.992-4.183
		c0.483-0.017,1.467-0.033,1.95-0.042c-1.7-2.725-3.767-5.708-3.217-9.083c0.892-1.133,2.525-0.283,3.758-0.442
		c0.325-0.317,0.975-0.95,1.3-1.275c5.134-1.153,6.417-1.79,10.8,2.375c0.358,3.5,2.725,6.358,3.183,9.85
		c0.667,0.683,1.35,1.375,2.042,2.083c0.067,2.742,0.617,5.467,2.108,7.817c0.908,0.642,1.825,1.308,2.742,1.983
		c0.383,1.367,0.783,2.725,1.233,4.083c0.867-1.35,1.742-2.692,2.6-4.042c-0.7-3.475,0.733-7.05-0.7-10.45
		c0.942-0.95,1.883-1.908,2.825-2.867c2.042-0.05,4.092-0.017,6.15,0.05c-0.108,1.175-0.2,2.358-0.275,3.55
		c0.475-0.2,1.433-0.592,1.908-0.783c0.767-3.592,0.333-7.3,0.333-10.933c0.375-0.05,1.133-0.158,1.508-0.217
		c0.233-3.358,0.442-6.725,0.517-10.083c0.383-0.275,1.158-0.825,1.542-1.1c0.242-0.608,0.725-1.817,0.967-2.425
		c1.642,1.142,3.233,2.392,4.742,3.717c1.5-0.542,2.992-1.083,4.508-1.592c-1.05-0.583-2.1-1.15-3.142-1.708
		c0.033-0.292,0.1-0.875,0.133-1.167c1.425-0.417,2.867-0.925,3.825-2.15c1.133-0.35,2.442-0.375,3.4-1.167
		c-0.158-4.35-2.35-8.367-2.3-12.758c0.683-0.758,1.342-1.525,1.983-2.317c-0.825-1.158-2.342-1.333-3.525-1.9
		c-0.05-0.95-0.092-1.892-0.125-2.825c1.8-0.058,3.592-0.108,5.408-0.125c-0.933-1-1.917-1.95-2.692-3.058
		c-0.367-2.4-0.108-4.842-0.1-7.242c2.483-0.267,4.975,0.083,7.267,1.117c0.858,0.05,1.733,0.117,2.625,0.183
		c1.042,2.283,3.117,3.508,5.608,3.575c0.992,1.967,0.417,3.958-0.608,5.767c-0.6-0.008-1.808-0.033-2.408-0.042
		c0.158,0.842,0.325,1.692,0.508,2.55c1.958,0.392,3.933,0.725,5.933,1.017c-0.192,1.025-0.375,2.058-0.558,3.1
		c-1.367-0.017-2.733-0.008-4.083,0.025c1.458,1.075,3,2.05,4.575,2.983c-0.075,1.558-0.133,3.125-0.192,4.692
		c-0.325,0.267-0.983,0.792-1.317,1.05c0.617,2.717,0.608,5.525-0.133,8.225c-1.392,0.017-2.783,0.042-4.15,0.083
		c0.367,1.058,0.742,2.133,1.125,3.217c0.808,0.292,1.6,0.633,2.4,1.017c0.483,1.358,0.517,2.825,0.733,4.258
		c-1.508-0.292-3.017-0.608-4.508-0.917c1.508,1.683,2.875,3.483,3.983,5.475c-2.183-0.058-4.342-0.15-6.508-0.175
		c1.725,0.2,3.45,0.317,5.208,0.458c-0.167,2.542-1.058,4.933-2.433,7.067c0.125-0.008,0.358-0.008,0.475-0.008
		c0.375,1.108,0.767,2.225,1.175,3.342c-1.342,2.492-2.733,5.017-2.825,7.933c1.142,0.258,2.333,0.567,3.508,0.867
		c0.358,1.925,0.725,3.858,1.033,5.808c2.1,0.083,4.208,0.2,6.317,0.342c0.692,0.7,1.4,1.4,2.117,2.117
		c0.158-2.3-0.242-5.142,2.308-6.275c0.125-0.817,0.258-1.625,0.4-2.425c0.35-0.317,1.058-0.942,1.417-1.258
		c0.017-0.458,0.05-1.375,0.067-1.842c1.458-1.458,2.933-2.942,4.7-4.042c1.708-2.025,2.608-4.558,4.125-6.7
		c2.725-1.892,5.142,1.167,7.15,2.692c-0.525-3.15-2.808-7.05-0.1-9.775c3.625-0.283,7.733-0.833,10.792,1.608
		c-0.442,1.858-1.008,3.683-1.692,5.475c1.083,1.55,2.133,3.158,2.625,5.033c0.225-0.633,0.692-1.908,0.925-2.542
		c1.267-0.675,2.533-1.383,3.783-2.125c0.492-2.425,1.6-4.633,2.892-6.717c-0.039-0.123-4.273-15.277-4.467-16.958
		c-0.35-0.208-1.058-0.625-1.417-0.833c-0.433-1.433-0.883-2.85-1.317-4.258c-0.908-0.033-1.8-0.058-2.683-0.075
		c-0.208-2.142-1.108-4.067-2.325-5.8c0.867-0.4,1.742-0.8,2.625-1.192c-0.333-1.783-0.583-3.575-0.775-5.358
		c4.417-2.417,9.492-3.008,14.4-3.742c0.017-2.558,0.258-5.108,0.733-7.617c0.4-0.208,1.2-0.625,1.608-0.833
		c-1.008-0.975-1.992-1.933-2.95-2.917c0.567-0.35,1.7-1.05,2.267-1.408c0.9-3.458,0.625-7.042,0.967-10.55
		c1.699-2.797,13.409,1.628,17.725,1.85c-6.763-16.454,1.086-3.678-5-17.692c0.158-1.25,0.325-2.483,0.5-3.717
		c1.683-0.383,3.375-0.725,5.083-1.042c-0.042-1.033-0.067-2.058-0.083-3.067c0.967-0.9,1.933-1.8,2.892-2.725
		c0.4-0.158,1.217-0.483,1.617-0.65c0.35-0.442,1.05-1.317,1.4-1.758c-0.058-0.9-0.108-1.792-0.15-2.675
		c4.192-1.358,8.375-2.758,12.633-3.875c-0.092-1-0.183-1.992-0.258-2.975c1.117,0.058,2.233,0.117,3.367,0.183
		c1.425-2.15,3.583-3.55,5.792-4.775c0.292-2.717,1.25-5.325,3.058-7.392c1.025,0.317,2.067,0.65,3.117,0.975
		c-1.496-5.334-6.218-7.683,3.65-12.092c0.842,0.775,1.7,1.558,2.575,2.333c1,2.692,0.633,5.458-0.2,8.133
		c0.567,3.05,1.867,6.292,0.242,9.283c0.025,1.275,0.083,2.55,0.158,3.842c1.95-0.167,3.9-0.283,5.867-0.375
		c0.275,0.258,0.833,0.775,1.108,1.042c-0.075-0.675-0.225-2.008-0.308-2.675c0.908-0.15,1.833-0.283,2.767-0.408
		c-1.767-0.475-3.183-1.583-4.417-2.875c-0.017-0.417-0.042-1.267-0.058-1.692c1.675-0.908,3.483-1.683,4.892-3.025
		c-0.108-0.892-0.233-1.775-0.375-2.642c-1.058-1.325-1.758-2.875-2.25-4.483c0.833-0.483,1.683-0.967,2.55-1.433
		c0.133-0.492,0.408-1.475,0.542-1.967c1.208,0.217,2.417,0.433,3.65,0.658c-0.258-0.392-0.783-1.175-1.042-1.567
		c-0.542,0-1.625-0.008-2.167-0.008c-1.808-3.692-2.608-7.725-3.2-11.75c3.7-1.675,7.633-2.642,11.608-3.408
		c0.15-0.833,0.317-1.658,0.5-2.483c1.192-0.017,2.4-0.033,3.617-0.033c0.383-1.333,0.767-2.667,1.167-3.983
		c0.483-0.008,1.442-0.025,1.925-0.033c1.608,1.367,3.2,2.758,4.725,4.233c0.317,0.117,0.95,0.35,1.267,0.467
		c1.533,1.583,3.675,1.592,5.758,1.492c0.117,1.692,0.117,3.383,0.05,5.083c0.567-0.75,1.15-1.492,1.75-2.225
		c0.6,0,1.817-0.008,2.425-0.008c0.392-0.8,0.792-1.592,1.208-2.383c0.825-0.192,1.658-0.383,2.508-0.558
		c0.625-2.65,0.425-5.725,2.183-7.95c2.483,0.775,4.933,1.725,7.567,1.925c0.417-0.742,0.85-1.475,1.292-2.2
		c9.242-0.408,4.164-0.587,11.342-8.333c0.2-2.058,0.125-4.258,2.083-5.533c-0.258-0.883-0.508-1.775-0.733-2.642
		c-0.417-0.133-1.267-0.408-1.683-0.55c0.058-0.5,0.175-1.508,0.233-2.008c1.792-0.575,3.392-1.533,4.242-3.292
		c0.667-0.308,1.358-0.608,2.058-0.9c0.183-1.108,0.375-2.217,0.583-3.308c1.983,0.475,3.992,1.217,5.4,2.775
		c0.408,1.692-1,2.875-1.833,4.15c1.95,0.125,3.9,0.408,5.817,0.883c-0.017,0.517-0.05,1.55-0.058,2.067
		c6.633,3.93,6.389-1.068,15.075,3.858c-0.017,0.658-0.042,1.983-0.05,2.642c1.675,0.058,3.375,0.15,5.075,0.217
		c-0.875-1.742-1.617-3.525-2.275-5.333c0.292-1.217,0.558-2.442,0.817-3.65c-2.658-1.525-2.483-4.708-2.933-7.333
		c1.808-2.142,3.542-4.35,5.183-6.625c0.967,0.017,1.942,0.042,2.933,0.067c-0.25-1.375-0.467-2.725-0.708-4.083
		c1.25-5.1,0.292-10.333-1.067-15.292c0.408-0.417,1.225-1.25,1.633-1.667c0.092-3.617-0.142-7.225,0.1-10.825
		c0.492,0.1,1.467,0.317,1.958,0.425c-0.5,4.65-1.208,9.65,1.033,13.992c-3.035,13.165-0.147,10.049-0.383,15.758
		c1.458,1.192,2.975,2.317,4.492,3.458c0.517-1,1.1-1.967,1.667-2.942c-0.117-0.383-0.342-1.158-0.458-1.542
		c0.25-0.683,0.5-1.358,0.775-2.033c-0.567-0.583-1.117-1.167-1.65-1.742c0.667-2.025,0.875-4.15,1.017-6.258
		c0.867,0.2,1.767,0.425,2.658,0.65c-0.242-2.225-0.325-4.458-0.233-6.683c1.158-0.7,2.317-1.392,3.492-2.092
		c-0.292-0.742-0.875-2.217-1.167-2.958c2.025-0.3,4.017,0.142,5.983,0.65c1.067-1.125,2.125-2.258,3.192-3.4
		c3.15,1.783,6.167,3.833,9.575,5.133c-0.983,0.742-1.975,1.483-2.958,2.208c-0.067,3.517-0.242,7.067,0.117,10.575
		c2.008,2.242,5.292,2.583,7.975,3.683c0.858-0.458,1.775-0.817,2.733-1.067c1.45,1.917,0.692,4.525,0.933,6.758
		c0.583,0.017,1.758,0.058,2.35,0.075c0.633,0.983,1.292,1.958,1.975,2.942c1.317,5.45,1.758,11.067,3.067,16.533
		c-1.117-0.65-2.183-1.3-3.258-1.967c-0.167,4,0.2,8.108,2.5,11.525c0.5-0.292,1.492-0.867,1.983-1.15
		c2.258,1.942,4.142,4.267,6.308,6.325c-0.65,2.1-1.517,4.167-1.758,6.375c1.225,2.275,3.233,3.983,5.017,5.817
		c1.2-0.917,2.417-1.825,3.642-2.725c1.175,2.242,1.992,4.65,2.517,7.133c-0.692,0.083-2.083,0.25-2.775,0.333
		c-0.25,3.15,0.333,6.25,1.367,9.225c1.45,1.683,2.833,3.425,4.208,5.183c0.958-0.083,1.942-0.15,2.933-0.217
		c-1.192-1.95-2.092-4.183-0.783-6.308c-0.992-1.917-2.025-3.942-1.175-6.108c-0.875-4.2-3.783-7.758-3.775-12.15
		c-1.458,0.192-2.908,0.4-4.35,0.608c-0.283-1.283-0.558-2.575-0.8-3.858c0.525-0.192,1.567-0.592,2.092-0.783
		c-0.383-1.833-0.758-3.683-1.058-5.517c0.975,0.858,1.942,1.75,2.917,2.658c1.017,0.442,2.042,0.892,3.092,1.35
		c0.683,2.408,1.325,4.833,2.042,7.242c1.025-0.092,2.075-0.183,3.125-0.267c-0.75-2.392-0.967-4.883-0.233-7.3
		c-0.483-1.917-0.675-3.875-0.492-5.833c-0.483-0.842-0.942-1.675-1.392-2.5c0.392-0.425,1.183-1.283,1.583-1.717
		c-0.767-0.967-1.617-1.85-2.442-2.742c0.133-0.342,0.4-1.025,0.525-1.375c-5.164-8.289-9.959-16.293-12.108-26.025
		c-0.65-0.517-1.283-1.033-1.9-1.542c0.183-1.108,0.383-2.208,0.6-3.3c-1.542-4.383-3.025-8.817-3.683-13.425
		c-1.175-1.175-2.275-2.4-3.267-3.708c0.608-0.108,1.825-0.333,2.433-0.442c-0.55-3.033-1.2-6.033-1.633-9.075
		c0.667,0.092,2,0.267,2.667,0.358c0.417,2.825,0.675,5.675,0.725,8.542c0.5,0.2,1.5,0.617,2.008,0.817
		c-0.25,0.7-0.75,2.092-1,2.792c0.692,1.375,1.4,2.75,2.125,4.133c0.2,8.142,2.967,16.292,7.8,22.875
		c0.183-0.842,0.567-2.533,0.75-3.375c7.46,6.397,4.317,8.788,9.1,12.867c-0.083-0.625-0.233-1.858-0.317-2.483
		c0.883,0.317,1.775,0.642,2.683,0.967c-0.292-1.933-0.617-3.85-0.992-5.75c1.308,0.033,2.642,0.067,3.975,0.1
		c0.092,1.908,0.192,3.833,0.3,5.758c0.75-0.292,1.525-0.567,2.308-0.842c1.683,0.242,3.867,1.483,4.925-0.583
		c0.9-0.117,1.825-0.233,2.767-0.35c-0.483-0.958-1.05-1.85-1.617-2.717c-0.175-3.025,0.242-6.175-0.958-9.033
		c-1.467-3.7-0.492-7.75-0.9-11.608c0.15-1.625-1.492-2.383-2.408-3.417c-1.1,0.358-2.2,0.708-3.267,1.067
		c-0.533-2.092-1.058-4.183-1.633-6.25c4.825-0.4,2.417-6.542,5.567-8.617c0.517-5.358-1.292-10.483-1.55-15.767
		c4.371,4.644,2.3,7.919,5.8,16.867c-0.256,1.801,1.392,10.199,1.592,11.2c1.6-0.275,3.217-0.55,4.842-0.783
		c-1.936,10.634-2.358,20.525-2.358,20.525c4.036,18.92,5.187,22.037,7.925,27.425c0.425-2.292,1.158-4.5,2.283-6.542
		c-3.45-9.695,0.421-2.275,1.858-15.55c1.9-2.808-0.333-5.825-0.817-8.692c1.758-0.142,3.533-0.25,5.317-0.333
		c0.383-1.192,0.825-2.358,1.283-3.525c1.225-3.675,0.05-7.817,1.925-11.267c-0.075-1.633,0.025-3.233,2.05-3.4
		c-0.058-2.133-0.15-4.267-0.267-6.392c0.492-0.125,1.467-0.383,1.958-0.517c1.492-3.567,2.958-7.183,3.592-11.017
		c0.642-0.333,1.3-0.65,1.975-0.967c-0.025,0.758-0.083,2.267-0.117,3.025c0.583-0.167,1.733-0.492,2.308-0.658
		c1.292-3.675,3.008-7.3,3.05-11.275c0.733-0.325,1.475-0.65,2.233-0.967c-0.042,2.6,0.567,5.2,0.417,7.8
		c-1.325,3.275-2.883,6.475-3.625,9.958c-6.199,9.238,0.552,7.852-3.267,14.108c0.175,3.65-2.792,6.25-3.225,9.742
		c-0.82,4.407-9.62,33.466-9.858,34.467c0,0,0.318,5.224-0.042,14.808c-0.708,0.417-1.392,0.85-2.067,1.292
		c0.883-0.425,1.775-0.85,2.683-1.267c0.717-1.367,1.458-2.725,2.225-4.058c1.467,0.308,2.958,0.642,4.442,1.025
		c1.675-2.783,3.375-5.658,3.642-8.967c0.942-0.808,1.817-1.708,2.583-2.692c-0.892-1.417-0.917-3.05-0.892-4.642
		c-0.867-2.317-1.625-4.675-2.092-7.1c1.233,0.775,2.333,1.75,3.292,2.875c0.5,0.108,1.517,0.325,2.017,0.433
		c-0.325,1.542-0.65,3.092-0.975,4.642c0.6-0.008,1.8-0.025,2.4-0.033c-0.242-0.85-0.45-1.683-0.658-2.517
		c3.808-2.567,3.792-7.8,5.625-11.658c-0.608-1.142-1.2-2.283-1.783-3.408c0.633,0.25,1.883,0.75,2.508,1
		c-0.067-1.3-0.125-2.592-0.167-3.875c1.125-0.492,2.267-0.967,3.425-1.433c1.479-7.965-4.693-15.653-4.808-18.625
		c1.2,0.117,2.425,0.258,3.658,0.417c0.033,0.925,0.092,1.858,0.175,2.8c2.617,3.583,3.567,7.975,4.992,12.1
		c1.767,2.458,3.675,4.8,5.767,7c0.5,0,1.508,0.008,2.008,0.008c-0.714-14.893-0.94-2.236-1.817-16.358
		c-0.25-0.283-0.742-0.858-0.983-1.15c-0.708-1.967-1.5-3.883-2.283-5.808c0.558,0.033,1.675,0.1,2.242,0.125
		c-0.892-3.683-2.658-7.233-1.942-11.133c2.883,4.284,3.982,12.678,6.208,16.417c0.508-4.983,0.575-10.175-1.342-14.9
		c0.217-0.342,0.65-1.017,0.867-1.358c-0.233-1.083-0.45-2.158-0.65-3.225c0.492,0,1.483-0.008,1.975-0.008
		c0.675,0.892,1.383,1.792,2.108,2.683c-0.233-3.283-0.8-6.525-1.317-9.767c0.508-3.317-0.575-6.667-2.433-9.392
		c-0.092,0.733-0.283,2.2-0.375,2.933c0.533,0.892,1.483,1.7,1.358,2.858c-0.95,0.308-1.892,0.592-2.833,0.858
		c-0.083-5.1-0.383-10.192-0.975-15.25c-1.175-2.608-0.883-5.533-1.225-8.3c0.608-0.017,1.825-0.058,2.433-0.075
		c-0.742,3.358-0.6,7.917,2.742,9.858c-0.117,1.358-0.225,2.725-0.333,4.1c0.958-0.167,1.933-0.325,2.925-0.475
		c0.933,5.367,0.875,11.025,3.058,16.092c0.675-1.658,1.283-3.35,1.95-5c2.842,3.675-0.517,8.633,2.417,12.183
		c1.067,1.342-0.033,2.842-0.467,4.2c1.75,4.208,3.325,8.5,4.258,12.975c0.917,0.125,1.85,0.258,2.792,0.392
		c0.408,0.842,0.825,1.683,1.258,2.542c1.1,0.567,2.192,1.142,3.317,1.725c-0.2,3.25,0.1,6.508,0.767,9.7
		c0.467-0.067,1.392-0.2,1.858-0.258c0.575-1.55,1.175-3.083,1.8-4.608c-0.567-2.667-1.417-5.25-2.342-7.808
		c0.975,0.242,1.958,0.542,2.933,0.883c0.508,1.642,0.667,3.35,1.05,5.033c0.267-0.383,0.792-1.158,1.058-1.542
		c0.883-5.75-2.35-11.083-2.183-16.825c-0.45-0.225-1.367-0.675-1.817-0.908c0.142,1.192,0.333,2.4,0.525,3.6
		c-0.95,0.3-1.9,0.592-2.817,0.892c-0.367-2.475-0.7-4.975-0.525-7.483c0.717,0.008,2.167,0.017,2.883,0.017
		c0.092-0.65,0.208-1.292,0.333-1.925c-1.042-1.342-1.4-3.008-1.642-4.633c0.454-1.453,1.656-10.178-0.092-13.325
		c-0.42-3.482,0.112-0.352-1.483-5.933c1.325-0.042,2.683-0.075,4.033-0.125c0.016,0.136,1.911,13.625,2.183,14.142
		c-0.382,4.48,0.964,17.161,4.7,19.675c1.233-4.375,2.5-8.767,2.908-13.308c0.533-0.1,1.075-0.192,1.642-0.283
		c-0.983-2.075-2.258-3.992-3.483-5.908c2.383-1.958,3.467-4.692,3.375-7.767c-0.567-0.1-1.717-0.292-2.283-0.383
		c-0.742-0.65-1.467-1.292-2.175-1.925c0.808-1.125,1.708-2.192,2.75-3.125c0.658-3.008,0.558-6.1,0.275-9.142
		c0.75-0.683,1.517-1.35,2.292-2.017c0.083-1.35,0.208-2.692,0.35-4.025c1.7-2.025,3.092-4.325,3.675-6.933
		c0.767-0.158,1.558-0.308,2.367-0.45c0.492-2.45,1.033-4.892,1.375-7.367c1.183-1.608,2.517-3.125,4.208-4.233
		c0.153,9.421-6.291,13.867-4.067,23.025c-0.978,3.75-2.27,6.6-3.917,9.917c1.008-1.192,2.25-2.15,3.733-2.7
		c0.233,0.775,0.7,2.342,0.925,3.125c-0.033-0.892-0.067-1.775-0.075-2.65c1.925-3.475,3.083-7.292,3.842-11.167
		c4.191,3.323,4.231,0.359-1.508,19.8c-0.958,3.242-3.55,5.558-6.45,7.083c0.892,21.585-5.592,20.356-6.267,33.217
		c0.467,1.625,2.033,1.4,3.35,1.125c0.017-1.067,0.058-2.125,0.117-3.175c1.208-0.275,2.433-0.533,3.675-0.792
		c1.092-3.183,3.292-5.917,3.825-9.3c0.467-0.267,1.383-0.8,1.842-1.067c-0.05-0.475-0.142-1.433-0.192-1.917
		c1.175-1.475,2.075-3.15,3.292-4.6c-0.029,9.083-7.833,18.288-4.633,20.075c-0.033-1.3-0.075-2.592-0.125-3.875
		c0.675-0.758,1.4-1.5,2.158-2.2c1.258,0.567,2.317,1.508,3.425,2.358c0.7-0.367,1.417-0.717,2.15-1.067
		c-1.706-6.086,1.942-1.812,1.942-12.033c0.4-0.317,1.192-0.942,1.583-1.258c0.017-2.408,0.2-4.825,0.917-7.133
		c0.216-10.353,3.51-4.916,0.667-15c0.358-0.292,1.075-0.875,1.433-1.167c1.25-3.742,2.367-7.575,2.15-11.567
		c0.708-0.15,1.442-0.275,2.183-0.375c0.283,2.758-0.25,5.508-0.708,8.217c0.417,0.283,1.25,0.833,1.667,1.117
		c-0.483,4.342-3.617,8.042-3.067,12.533c-0.551,1.211-2.739,13.31-1.967,15.683c-0.517,0.708-1.033,1.417-1.517,2.133
		c0.367,0.233,1.1,0.692,1.475,0.917c1.8-1.6,3.783-3.25,3.817-5.892c3.35-2.3,2.658-6.55,4.433-9.75
		c0.192-2.908,0.425-5.833,1.383-8.608c-0.383-0.275-1.15-0.825-1.542-1.1c-0.075-0.392-0.225-1.167-0.3-1.55
		c0.9-0.033,1.817-0.025,2.75-0.167c0.208-0.792,0.383-1.583,0.558-2.375c0.392-0.225,1.158-0.683,1.55-0.917
		c0.725-2.567,0.967-5.233,0.992-7.883c3.526-0.956,0.914-0.205,5.108-2.158c-0.767,3.258-1.767,6.458-2.783,9.642
		c0.017,1.067,0.05,2.133,0.1,3.217c-0.483,0.6-0.95,1.208-1.408,1.825c1.021,3.402,1.054,22.383-0.233,25.925
		c-0.858-1.675-2.533-2.175-4.192-2.575c0.058-0.325,0.167-0.983,0.225-1.317c1-0.492,2.017-0.983,3.05-1.467
		c0.083-2.883,0.308-5.9-1.142-8.517c0.433-1.167,0.867-2.333,1.308-3.492c-0.425,0.117-1.267,0.35-1.683,0.467
		c-4.375,8.963-2.978,6.728-2.583,9.05c-1.55,1.183-1.817,2.975-1.783,4.808c-0.375,1.458-0.708,2.917-1.008,4.4
		c0.758,0.042,2.275,0.133,3.033,0.183c-0.483,1.9-1.042,3.783-1.633,5.65c-1.258-0.325-2.492-0.65-3.717-0.967
		c-0.125,1.433-0.208,2.875-0.2,4.317c0.358-0.633,1.058-1.9,1.408-2.533c2.167-1.467,4.175,1.542,6.242,2.167
		c0.2-2.867-0.558-6.258,1.883-8.392c0.6,2.658,1.4,5.275,2.55,7.767c-0.442,1.35-0.867,2.717-1.25,4.083
		c-0.308,0.333-0.925,1.008-1.242,1.342c-0.108,0.542-0.333,1.625-0.442,2.167c-0.425,0-1.267,0.008-1.683,0.017
		c-0.058-0.508-0.183-1.525-0.242-2.033c-1.858-0.858-3.592-2.05-5.583-2.525c-1.242,1.775-2.008,3.833-2.108,6.008
		c0.833-1.158,1.517-2.408,2.208-3.658c0.925-0.192,1.858-0.375,2.817-0.55c-0.117,1-0.208,2.008-0.292,3.017
		c-1.542,1.758-1.375,4.092-1.2,6.258c0.692-0.2,2.083-0.592,2.775-0.792c0.125-1.025,0.275-2.042,0.442-3.05
		c0.575-0.333,1.175-0.658,1.792-0.975c0.133,0.6,0.4,1.783,0.533,2.383c1.2-0.275,2.375-0.558,3.608-0.817
		c-0.617,1.875-1.267,3.742-1.942,5.592c3.324,1.942,4.333,2.278,5.558,3.692c-1.342,0.25-2.617,0.525-3.917,0.792
		c0.35,1.325,0.7,2.658,1.05,4c1.508,0.533,3.042,1.042,4.508,1.75c0.233,1.1,0.317,2.242,0.492,3.383
		c0.475,0.058,1.425,0.183,1.9,0.242c1.05,0.658,2.108,1.292,3.217,1.9c-0.817-2.333-2.283-4.325-3.817-6.217
		c-0.15-1.625-0.425-3.233-0.4-4.858c0.933-2.817,3.517-4.542,5.833-6.192c2.725,0.342,4.417,2.633,6.542,4.117
		c0.092-3.325-2.308-6.825-0.267-9.925c0.675-2.15,3.283-1.133,4.95-1.617c0.675-2.308-0.567-4.425-1.442-6.458
		c1.05,0.075,2.125,0.167,3.208,0.258c-0.565-16.907,4.482-10.118,3.517-34.692c0.375-0.15,1.125-0.45,1.492-0.6
		c-0.275-25.429,4.496-63.933,4.542-64.933c0.858-0.042,1.742-0.083,2.633-0.117c-2.364,16.076-3.679,46.596-3.233,54.875
		c-1.9,2.475-1.692,5.633-2.067,8.567c0.258,1.075,0.517,2.158,0.817,3.25c-1.825,6.508-1.133,13.342-2.342,19.942
		c0,1.658,1.667,2,3,2.175c0.067-0.742,0.2-2.217,0.267-2.95c1.1-0.092,2.217-0.167,3.35-0.25c-0.4-0.85-0.792-1.692-1.167-2.533
		c0.592-0.533,1.2-1.067,1.825-1.583c-0.292-0.542-0.558-1.067-0.808-1.592c0.392-0.408,1.158-1.233,1.542-1.642
		c0.142-2.958-1.617-5.542-2.667-8.183c0.658-0.825,1.35-1.642,2.042-2.458c1.108-0.075,2.233-0.142,3.392-0.2
		c0.417-0.442,1.25-1.325,1.667-1.767c1.975,0.5,3.292,2.875,5.567,2.158c0.067-1.583,0.158-3.158,0.283-4.717
		c1.167,0.85,2.325,1.725,3.483,2.633c0.458,0.05,1.367,0.15,1.825,0.2c0.317,0.458,0.95,1.392,1.267,1.85
		c1.425-0.617,2.85-1.258,4.283-1.892c0.25,0.475,0.767,1.425,1.017,1.9c-0.358,2.308-0.558,4.633-0.65,6.967
		c0.95,1.933,1.017,4.083,0.9,6.2c0.258,0.7,0.525,1.4,0.817,2.117c-2.125,2.517-1.317,6.017,0.033,8.692
		c1.608,0.958,3.608,0.675,5.425,0.942c0.992,0.792,2.017,1.583,3.058,2.383c-0.067,0.942-0.108,1.892-0.142,2.858
		c-0.825,1.225-1.625,2.467-2.392,3.725c0.483,0.633,0.983,1.267,1.5,1.917c-1.875,2.833-3.992,6.833-1.175,9.808
		c0.033,0.608,0.092,1.842,0.125,2.45c3.158-1.567,2.933-5.05,2.817-8.075c0.425-0.267,1.275-0.817,1.7-1.092
		c1.225,0.392,2.467,0.775,3.725,1.167c1.058,0.75,2.133,1.475,3.233,2.2c-0.267,1.758-0.525,3.525-0.692,5.3
		c-1.167,0.842-2.308,1.683-3.467,2.508c-1.308,2.2-2.492,4.483-3.117,6.983c1.933,1.458,4.058,2.733,6.542,2.942
		c1.151-4.861,4.894-53.756,4.242-58.583c2.142-5.467,2.058-11.55,1.567-17.317c1.142-0.758,2.308-1.517,3.492-2.233
		c0.108,3.058-0.475,6.067-1.1,9.042c0.242,0.608,0.708,1.808,0.95,2.408c0.383-0.225,1.15-0.692,1.542-0.925
		c-0.417-0.8-0.817-1.6-1.2-2.4c0.767-0.142,2.317-0.442,3.083-0.583c0.192,2.642-0.058,5.3-0.942,7.817
		c0.217,2.325-0.042,4.683-1.425,6.65c0.083,1.733,0.208,3.475,0.35,5.217c-1.467,3.1-1.7,6.542-1.542,9.917
		c-1.5,2.067-0.858,4.442-0.133,6.667c-0.625,0.55-1.233,1.108-1.825,1.675c0.025,1.317,0.075,2.642,0.15,3.975
		c1.283-0.475,2.533-1.125,3.917-1.317c1.15,0.375,2.242,0.958,3.358,1.492c0.592,1.367,1.2,2.742,1.842,4.108
		c-0.6,0.633-1.167,1.267-1.675,1.942c0.642,0.25,1.917,0.742,2.558,0.992c-0.4,1.408-0.8,2.817-1.167,4.233
		c2.367-0.35,4.758-0.492,7.167-0.433c-0.864-9.755-5.725-7.341-3.433-25.833c0.758-0.267,1.533-0.525,2.325-0.783
		c1.35,0.133,2.7,0.233,4.083,0.342c0.325,0.942,0.667,1.9,1.025,2.85c-0.3,1.017-0.567,2.033-0.817,3.058
		c0.708,2.025,1.017,4.15,1.167,6.3c2.025-0.633,4.033-1.35,6.033-2.1c0.175-0.633,0.367-1.25,0.583-1.858
		c-1.467-2.975,1.125-5.858-0.142-8.867c0.775-0.967,1.567-1.925,2.408-2.858c0.2,3.558-0.667,7.225,0.458,10.7
		c0.892-1.717,2.658-1.975,4.4-2.108c-0.239,4.54-0.708,3.975-0.725,7.258c5.955-7.243-1.932-7.393,6.467-26.233
		c1.033-1.75,0.033-3.667-0.283-5.45c-0.583-2.225-0.467-4.542-0.417-6.808c1.9-0.117,3.825-0.2,5.758-0.267
		c0.375,1.05,0.775,2.1,1.183,3.158c1.55,0.233,3.125,0.475,4.7,0.742c-0.008-2.908-0.017-5.808-0.033-8.708
		c1.075-0.775,2.167-1.533,3.3-2.267c0.042-0.55,0.125-1.658,0.167-2.217c1.9,0.35,3.817,0.742,5.742,1.125
		c0.542,0.8,1.1,1.6,1.683,2.408c0.867-0.267,1.758-0.517,2.667-0.767c0.058-3.642-1.6-8.633,2.3-10.892
		c-0.743-4.523-2.223-4.832,2.858-15.9c1.45,0.675,2.9,1.342,4.392,1.975c0.308,0.683,0.633,1.375,0.983,2.067
		c-2.611,4.503,2.874,4.53,1.833,14.292c0.225,0.375,0.675,1.142,0.9,1.517c0.892,0.442,1.808,0.9,2.733,1.358
		c0.217,0.467,0.658,1.408,0.875,1.883c0.767-0.042,1.55-0.083,2.358-0.117c1.325-0.683,2.725-1.2,4.2-1.55
		c2.342,4.708,6.808,7.792,10,11.892c0.658,0.108,1.983,0.333,2.65,0.45c-1.833-3.033-1.45-6.667,0.1-9.717
		c-0.717-3.3-2.342-6.25-4.458-8.842c-0.458-0.058-1.367-0.183-1.817-0.242c-0.308-0.375-0.908-1.142-1.217-1.525
		c-0.475-0.05-1.425-0.15-1.9-0.2c-1.108-2.458-2.117-4.975-3.65-7.192c0.017-1.808-0.3-3.892,1.558-4.95
		c0.025-0.858,0.058-1.7,0.125-2.542c1.375-0.242,2.8-0.475,4.208-0.742c1.558,0.275,3.133,0.508,4.733,0.725
		c0.258,0.292,0.767,0.883,1.025,1.175c1.908,0.875,3.792,1.808,5.725,2.675c0.983-0.35,1.992-0.683,3.017-1.008
		c1.55-1,3.208-1.858,4.642-3.05c-1-2.758-3.017-5.008-4.775-7.308c-0.192-0.675-0.358-1.35-0.508-2.017
		c-2.844-3.196-1.481-11.236-0.542-14.008c2.708,0.042,5.433,0.067,8.158,0.125c1.233,5.142,0.833,10.408,0.308,15.608
		c0.55,3.033,0.817,6.217,2.608,8.85c0.892,0.6,1.792,1.217,2.7,1.858c0.6,0.183,1.808,0.558,2.408,0.742
		c6.003-11.574-2.394-10.658-4.125-23.742c1.083-0.067,2.192-0.133,3.325-0.192c0.492,0.975,1.017,1.95,1.558,2.933
		c-0.208,0.292-0.642,0.867-0.85,1.158c0.625,1.158,1.258,2.325,1.917,3.5c-0.333-1.675-0.867-3.475,0.092-5.05
		c1.125-1.917-0.4-4.45,1.25-6.15c1.092-1.842,3.892-3.292,2.833-5.775c-1.125-3.567-2.292-7.292-1.3-11.042
		c1.308-0.45,2.625-0.892,3.967-1.308c0.958-2.375,1-4.95,1.033-7.467c1.042,0.358,2.1,0.733,3.183,1.108
		c-0.267-1.692-0.45-3.383-0.433-5.083c1.167-0.008,2.358,0,3.567,0.017c0.883,0.675,1.775,1.35,2.7,2.025
		c-0.283,1.233-0.592,2.475-0.692,3.75c1.045,4.425,2.252,1.196,3.875,11.667c-1.4,6.292-0.075,12.742-0.6,19.1
		c1.383,0,2.783,0,4.208-0.017c1.625-1.4,3.742-2.1,5.317-3.583c4.025-3.608,5.675-9.017,9.308-12.958
		c1.158-0.025,2.325-0.042,3.533-0.05c0.892-2.233,1.833-4.442,2.792-6.65c1.35-0.017,2.708-0.025,4.092-0.033
		c0.525,0.783,1.067,1.583,1.633,2.383c-0.875,2.825-1.825,5.675-3.675,8.025c0.133,2.075,0.267,4.15,0.433,6.225
		c1.125,0,2.267,0,3.425,0c0.625,0.775,1.292,1.533,1.875,2.392c-0.467,2.342-1.192,4.625-1.633,6.975
		c-0.5,0.475-0.975,0.958-1.425,1.45c0.125,2.525,0.567,5.025,1.117,7.492c0.592,0.033,1.758,0.1,2.342,0.133
		c1.025,3.533-0.692,6.717-1.7,9.975c1.708,3.525,1.917,7.392,1.625,11.242c0.683,0.675,1.383,1.367,2.1,2.058
		c0.533,0.008,1.6,0.025,2.133,0.033c0.308-0.867,0.633-1.733,0.975-2.592c-0.683-0.6-1.342-1.183-1.983-1.767
		c0.525-0.233,1.575-0.717,2.108-0.95c-0.342-1.558-0.858-3.067-1.525-4.492c0.758-0.158,1.533-0.308,2.342-0.45
		c0.692-1.383,1.45-2.733,2.292-4.033c-0.125-1.733-0.317-3.458-0.8-5.117c0.867-2.467,1.75-4.917,2.633-7.375
		c2.258,0.1,4.525,0.192,6.817,0.225c0.492-2.725-0.742-5.233-1.783-7.65c1.875-2.2,4.792-4.192,4.742-7.408
		c0.05-3.65,0.05-7.3-0.075-10.942c-0.342-3.892-1.367-7.692-1.508-11.6c0.142-3.683-2.283-6.867-1.767-10.575
		c0.533-0.108,1.608-0.317,2.15-0.425c0.608-1.142,1.25-2.267,1.892-3.4c2.108,0.017,4.217,0.425,5.567,2.225
		c-2.558,6.973-0.104,15.095,2.675,17.967c0.092-4.358,0.008-8.725-0.467-13.067c2.175-0.625,4.6-0.758,6.533-2.058
		c-0.067-2.383-0.708-4.7-1.092-7.042c1.233-0.458,2.508-0.908,3.783-1.367c0.75-0.733,1.525-1.45,2.325-2.158
		c-0.242-1.158-0.458-2.3-0.675-3.442c2.471-17.646,1.452-10.449,0.467-21.242c1.758,0.1,3.525,0.233,5.317,0.358
		c0.933,4.458-0.35,9.117-1.383,13.467c3.633,5.458,1.825,12.175,1.542,18.267c0.858-0.142,1.742-0.283,2.642-0.417
		c0.15-0.9,0.308-1.8,0.5-2.692c1.183-0.542,2.417-1.017,3.567-1.7c1.417-1.85,1.875-4.242,2.842-6.333
		c1.708,0.908,3.308,2.042,4.708,3.408c-0.893,1-19.28,30.803-12.283,46.958c1.442-2.917,1.517-6.233,1.992-9.383
		c1.55,0.083,3.133,0.083,4.7,0.375c0.667,0.967,1.15,2.058,1.742,3.108c2.844-1.797,2.155-3.506,7.758,2.45
		c-2.45,2.8-5.975,6.625-3.383,10.475c9.518-10.668,7.976-9.659,10.308-17.367c0.958-0.792,1.942-1.592,2.867-2.45
		c-1.175-2.217-0.725-4.558,0.292-6.725c1.617,0.75,3.233,1.517,4.892,2.242c-1.892,6.858-2.442,14.308-6.683,20.283
		c-0.075,1.475-0.125,2.95-0.142,4.442c1.008-0.058,2.033-0.117,3.083-0.167c0.942-1.592,2.733-1.675,4.392-1.825
		c0.808,2.75,1.267,5.575,1.675,8.417c1.367,0.108,2.758,0.217,4.167,0.333c0.008,1.35,0.025,2.7,0.067,4.067
		c1.258,1.308,2.55,2.6,3.992,3.742c0.333-0.367,1.008-1.117,1.342-1.492c0.575-1.925,1.233-3.825,1.925-5.717
		c-0.142-0.367-0.408-1.092-0.542-1.458c1.592-3.033,0.233-6.325-0.25-9.442c1.9,0.058,3.825,0.133,5.767,0.208
		c-1.471,8.761,0.096,27.419,2.017,32.158c0.367-1.6,0.8-3.2,1.767-4.558c1.35-1.017,3.042-1.142,4.692-1.35
		c-0.308-0.858-0.608-1.717-0.858-2.558c-1.608-1.633-3.267-3.217-5.117-4.542c0.933-1.392,1.858-2.8,2.783-4.208
		c0.667-0.025,1.983-0.067,2.65-0.092c0,1.192,0.025,2.392,0.075,3.592c1.008,0,2.017-0.017,3.058-0.025
		c-1.325-2.008-2.45-4.2-4.3-5.767c-0.232-8.714-3.422-4.142-2.308-12.55c0.483-0.1,1.442-0.3,1.917-0.4
		c0.65-0.483,1.342-0.942,2.075-1.358c1.808,1.058,3.467,2.367,5.167,3.608c-1.167,1.917-1.775,4.067-1.175,6.308
		c1.175-1.058,2.375-2.108,3.525-3.217c1.183-0.058,2.375-0.108,3.625-0.15c-0.833-5.25-2.025-10.442-2.367-15.758
		c0.542-1.908,0.392-3.883-0.142-5.767c1.1-0.042,2.217-0.083,3.358-0.117c-0.1-2.533-0.275-5.058-0.567-7.558
		c1.967-1.525,1.108-3.883-0.033-5.6c-2.4-0.042-4.65-0.792-6.708-1.95c-0.858-2.358-2.225-4.467-3.825-6.375
		c0.417-0.267,1.258-0.792,1.675-1.05c1.425,0.6,2.867,1.183,4.317,1.8c0.917-0.542,1.867-1.075,2.825-1.592
		c2.125,0.625,4.333,0.758,6.558,0.725c1.442,1.275,2.783,2.65,4.067,4.108c-0.667,0.267-2,0.817-2.658,1.092
		c-2.05,6.467-2.167,13.542-0.017,19.992c1.142-0.292,2.325-0.583,3.5-0.875c0.233,3.383-0.733,6.6-2.25,9.583
		c-0.583-0.033-1.75-0.092-2.333-0.117c-0.408,2.692-1.983,5.85,0.15,8.217c0.342-0.5,1.033-1.492,1.383-1.992
		c0.975,0.275,1.917,0.683,2.908,1.05c-0.05-1.633-0.083-3.258-0.075-4.883c1.033,0.583,2.125,1.2,3.175,1.842
		c2.583,0.167,5.167,0.275,7.775,0.308c0.692,1.042,1.392,2.083,2.108,3.142c0.333,0.025,1,0.067,1.333,0.092
		c0.425-1.467,0.917-2.95,2.092-4.008c0.183-2.433,0.258-4.875,0.325-7.317c-1.708-1.317-3.408-2.625-5.083-3.942
		c-0.067-1.383-0.092-2.758-0.092-4.133c-0.708-0.675-1.392-1.358-2.05-2.042c1.508-0.1,3.05-0.192,4.608-0.292
		c1.475-0.858,3.083-1.425,4.767-1.825c2.317,3.167,3.392,6.992,5.367,10.367c1.492-0.042,3.008-0.075,4.55-0.092
		c1.417-1.817,2.875-3.6,4.375-5.358c0.075-1.325,0.175-2.65,0.317-3.967c1.617-3.283,3.292-6.55,6.275-8.833
		c0.55-0.067,1.658-0.192,2.208-0.25c-2.667-3.283-3.15-7.542-3.65-11.575c2.2,0,4.408,0.008,6.633,0.008
		c0.033,1.617,0.092,3.242,0.167,4.867c1.458,1.075,2.975,2.108,4.492,3.15c0.467,0.033,1.408,0.117,1.875,0.15
		c-0.042-0.858-0.067-1.717-0.067-2.567c-2.558-2.277-2.936-2.35-3.5-5.633c1.008,0.033,2.042,0.075,3.108,0.133
		c1.083,0.908,2.192,1.775,3.358,2.642c-0.708-2.467-1.125-4.992-1.217-7.55c-0.483-0.075-1.467-0.233-1.95-0.308
		c-0.883-0.675-1.742-1.325-2.592-1.967c-0.725-1.317-1.425-2.633-2.117-3.942c0.458-0.442,1.383-1.342,1.842-1.783
		c-1.467-3.7-5.783-2.983-8.883-4.042c-1.083-1.825-2.35-3.525-3.658-5.167c1.608-1.117,3.075-2.458,4.267-4.033
		c-0.933-1.183-2.183-2.033-3.383-2.858c-0.033-1.342-0.033-2.683-0.017-4.017c0.808-0.383,1.633-0.758,2.483-1.133
		c-0.525-2.892-0.392-6.183,1.9-8.317c1.975,0.15,3.908,0.6,5.9,0.858c1.492,3.042,1.417,6.592,3.183,9.55
		c1.042,0.058,2.1,0.125,3.183,0.208c0.625,0.908,1.242,1.817,1.908,2.733c0.733-0.333,1.492-0.633,2.292-0.9
		c0.783,0.642,1.533,1.383,2.325,2.092c-0.142,1.4-0.217,2.817-0.433,4.217c-1.342,0.258-2.717,0.292-4.025,0.408
		c-0.35,1.65-0.292,3.333,0.092,4.983c0.692-0.05,2.067-0.142,2.758-0.183c2.034-1.775,2.213-4.357,7.008,4.817
		c0.508-0.017,1.517-0.05,2.017-0.067c1.359-2.575,0.892-6.067-1.2-8.1c-2.492-2.558-2.683-6.375-4.5-9.342
		c0.692-0.958,1.075-2.55,2.609-2.233c0.575,1.075,1.075,2.208,1.592,3.333c0.617,0.008,1.867,0.017,2.483,0.017
		c0.017-1.833,0.058-3.667,0.159-5.492c2.375,1.842,4.342,4.183,5.567,6.95c1.175,0.45,2.35,0.883,3.567,1.325
		c-0.109,0.433-0.342,1.3-0.458,1.725c-0.383,0.283-1.15,0.85-1.542,1.133c1.658,1.533,3.167,3.258,4.317,5.233
		c-2.625,2.183-6.208,2.992-8.4,5.7c-1.842,2.742-5.55,1.583-8.317,1.758c-0.442,0.6-0.867,1.2-1.275,1.808
		c-1.258-0.083-2.492-0.158-3.7-0.225c-0.45,0.783-0.883,1.575-1.283,2.375c0.825,0.783,1.683,1.575,2.542,2.367
		c-0.642,0.2-1.925,0.608-2.567,0.808c-0.092,0.575-0.267,1.742-0.358,2.325c1.558,0.65,3.158,1.217,4.825,1.65
		c0.375,0.258,1.125,0.792,1.5,1.058c0.383,3.067,1.525,5.95,3.042,8.633c-0.208,0.392-0.642,1.175-0.858,1.567
		c0.683,1.417,1.358,2.842,2.033,4.275c0.467,0.042,1.392,0.117,1.858,0.15c0.892-2.275,1.767-4.567,2.442-6.925
		c1.508-0.642,3.025-1.317,4.567-1.958c-0.883-4.475-3.917-8.308-3.7-13.008c1.758-0.092,3.55-0.292,5.35-0.1
		c1.158,0.525,1.75,1.808,2.75,2.608c2.017,0.558,4.167,0.517,6.25,0.842c0.092,5.5-0.841,11.325,1.167,16.583
		c2.083-0.317,4.192-0.5,6.333-0.533c0.083-0.6,0.25-1.8,0.342-2.4c0.95-0.167,1.925-0.325,2.925-0.492
		c2.158-2.217,5.383-1.417,8.092-0.892c1.483-0.35,2.992-0.692,4.525-1.008c0.417-0.883,0.842-1.775,1.308-2.65
		c1.025-0.192,2.067-0.392,3.133-0.583c-0.775-1.317-1.617-2.592-2.608-3.733c-0.083-0.933-0.125-1.858-0.133-2.775
		c1.658,0.542,3.325,1.15,4.992,1.767c1.042-3.367,3.267-6.242,3.9-9.75c0.384-0.125,1.167-0.375,1.558-0.5
		c0.983-1.767,1.683-3.775,3.15-5.225c2.417-1.35,5.275-0.942,7.95-1.05c0.803-12.395,4.045-3.433,1.233-25.1
		c2.467-0.767,5.15-2.425,7.766-1.183c1.758,2.933,2.442,6.717,5.792,8.433c0.6,2.242,1.308,4.458,2.15,6.642
		c0.75-0.567,2.208-0.733,2.058-2.017c0.125-4.708,2.408-8.9,3.092-13.5c1.05-5.233,3.867-9.9,4.95-15.133
		c1.808-0.55,3.767-0.858,5.3,0.55c-0.058,1.658,0.109,3.3,0.425,4.933c2.017-1.067,3.842-2.45,5.567-3.958
		c0.608-9.886,0.946-9.797,2.017-10.367c2.392-0.508,5.142-0.3,7.083,1.392c-1.25,3.625-2.258,7.417-1.542,11.283
		c0.575-0.092,1.733-0.283,2.308-0.383c4.313-27.694,7.649-12.866,10.583-38.058c1.458-0.042,2.933-0.067,4.425-0.083
		c0.667,1.75,1.733,3.625,0.917,5.525c-1.675,4.867-1.475,10.075-1.733,15.142c-0.008,5.6-1.033,11.225-0.075,16.8
		c-0.192,3.158-1.175,6.283-0.475,9.483c4.533-0.35,3.858-5.7,3.408-8.908c2.067-0.117,4.142,0.158,6.117,0.883
		c0.683-0.292,1.392-0.575,2.125-0.858c-0.05-0.958-0.075-1.917-0.075-2.867c2.758-1.342,6.208-2.5,6.925-5.917
		c-2.192-4.292-2.058-9.15-1.808-13.825c0.825-0.9,1.658-1.825,2.483-2.758c-0.725-4.683,4.217-7.55,4.383-12.025
		c0.208-3.6-0.217-7.183-0.383-10.775c1.408-0.8,2.833-1.583,4.3-2.342c1.3,0.875,2.617,1.783,3.925,2.717
		c-0.673,2.915-2.769,25.705-0.475,32.708c0.725,0.075,2.167,0.233,2.884,0.308c-1.201,6.401-5.991,5.373-0.417,14.867
		c1.533,0.017,3.058,0.025,4.633,0.05c-0.133-0.992-0.25-1.975-0.342-2.958c0.958-0.883,1.925-1.767,2.925-2.642
		c-0.425-1.342-0.808-2.675-1.158-4.008c1.925-0.6,3.75-1.525,5.558-2.467c0.883-2.417,0.4-6.983,4.067-6.6
		c0.925,0.517,1.817,1.183,2.717,1.825c1.525,0,3.075,0.008,4.642,0.033c2.281,5.912,2.499,8.152,2.808,9.475
		c0.342-1.192,0.767-2.375,1.175-3.558c-1.325-4.517-1.9-9.433-5.134-13.092c-0.891-3.542-0.175-7.383-0.567-11.033
		c1.525-0.042,3.075-0.067,4.65-0.083c0.467,2.508,0.825,5.033,1.125,7.575c1.833-7.342,3.958-14.7,4.317-22.3
		c0.858-0.358,1.733-0.717,2.633-1.067c1.083,0.417,2.183,0.833,3.317,1.25c0.258,1.392,0.783,2.817,0.35,4.233
		c-1.8,6.267-1.266,12.908-1.125,19.35c0.8,0.733,1.608,1.475,2.458,2.225c1.983,0.092,4.317-0.433,6.092,0.767
		c2.086,3.934-2.354,6.412,1.392,13.733c1.167-0.933,2.35-1.9,3.517-2.875c-0.05-0.683-0.158-2.05-0.217-2.733
		c1.492-0.608,2.975-1.192,4.517-1.758c1.458,1.917,1.875,4.242,1.7,6.608c0.508,0.017,1.525,0.058,2.034,0.075
		c0.417-0.967,0.842-1.95,1.4-2.867c2.858-0.717,5.783,0.1,8.358,1.4c0.083,2.6,0.15,5.2,0.175,7.808
		c1.617,0.167,3.25,0.325,4.917,0.467c0.6-0.9,1.125-1.917,1.992-2.633c1.775-0.283,3.042,1.183,4.167,2.342
		c0.975,0.008,2,0.017,3.042,0.033c0.117-0.6,0.359-1.808,0.475-2.408c-0.758-2.658-1.983-5.35-1.717-8.158
		c0.608-0.717,1.275-1.4,2-2.042c-5.533-2.155-11.046-15.325-11.558-16.325c0.425-0.9,0.867-1.792,1.325-2.692
		c2,0.025,4.208-0.458,6.1,0.492c0.65,0.875,1.058,1.875,1.609,2.85c1.958,1.533,4.367,1.933,6.825,1.633
		c-0.408-5.033-4.942-10.183-1.808-15.025c2.617,0.108,5.258,0.225,7.9,0.417c0.517-0.6,1.058-1.2,1.625-1.8
		c1.325-0.117,2.683-0.2,4.042-0.433c0.192-4.275,3.175-8.35,1.283-12.575c11.81-3.162,1.641-1.073,12.142-0.3
		c6.192,6.751,1.354,8.255,5.592,15.808c0.125,0.583,0.359,1.733,0.483,2.317c1.55-0.033,3.125-0.05,4.717-0.058
		c0.083,0.608,0.242,1.817,0.325,2.425c-0.692,0.867-1.367,1.733-1.933,2.658c1.192,1.1,2.517,2.083,3.775,3.142
		c2.617,0.683,5.225,1.392,7.883,1.983c0.783,1.067,1.592,2.142,2.408,3.217c0.658,0,1.983,0,2.65-0.008
		c-0.083-1-0.134-2-0.15-2.992c-1.234-0.083-2.434-0.158-3.617-0.233c0.525-1.875,2.017-3.6,1.975-5.583
		c-1.033-0.808-2.192-1.475-3.242-2.175c1.467-2.492,3.542-4.633,4.517-7.4c-0.75,0.533-1.467,1.075-2.167,1.625
		c-0.433,0.058-1.308,0.167-1.75,0.217c-1.192,2.092-3.6,2.233-5.683,1.792c0.008-1.075,0.033-2.15,0.092-3.225
		c1.517-0.583,3.05-1.2,4.592-1.817c-2.15-1.583-4.1-3.633-3.908-6.5c0.775-0.175,2.317-0.525,3.092-0.708
		c-1.542-2.058-3.5-3.75-5.192-5.65c-0.75-2.242-1.067-4.583-1.667-6.85c0.342-0.225,1.033-0.675,1.383-0.892
		c-0.217-1.575-0.508-3.125-0.817-4.667c1.042,0.025,2.108,0.05,3.208,0.083c0.367,0.942,0.75,1.892,1.167,2.85
		c0.9,0.625,1.825,1.267,2.758,1.925c0.608,0.167,1.833,0.492,2.45,0.65c-0.25-1.708-0.425-3.408-0.592-5.108
		c-0.508-0.217-1.517-0.658-2.025-0.883c0.158-0.583,0.475-1.758,0.633-2.35c1.325-0.7,2.575-1.683,4.1-2
		c1.259,0.3,2.458,0.892,3.683,1.433c0.408,0.875,0.908,1.725,1.483,2.533c2.283,0.283,4.608,0.108,6.942,0.108
		c-0.225-1.317-0.408-2.625-0.567-3.925c0.908-0.217,1.85-0.425,2.825-0.633c0.692-0.583,1.433-1.117,2.225-1.617
		c2.017,0.542,4.017,1.35,6.184,1.2c-3.417-1.208-6.65-3.242-8.292-6.575c1.433-0.067,2.933-0.1,4.425-0.125
		c0.4-0.875,0.817-1.742,1.267-2.608c0.892-0.192,1.842-0.383,2.8-0.583c0.742,0.675,1.525,1.35,2.333,2.025
		c0.25,1.033,0.525,2.075,0.85,3.125c1.275,0.45,2.575,0.983,3.583,1.975c-1.358,0.108-2.692,0.2-4,0.283
		c0.425,1.675,0.842,3.358,1.25,5.058c0.975-0.208,1.992-0.417,3.025-0.625c0.358,0.133,1.075,0.383,1.433,0.508
		c0.25,2.667,0.708,5.317,1.225,7.95c2.217,1.133,4.642,2.783,7.158,1.367c0.425-2.308,0.991-4.583,1.633-6.842
		c0.55,0.208,1.65,0.617,2.208,0.825c0.367-0.692,1.108-2.067,1.475-2.75c0.267,1.833,0.442,3.692,0.692,5.533
		c3.616,2.108,4.892,6.758,5.633,10.642c0.733,0.642,1.517,1.292,2.308,1.933c0.025-1.142,0.075-2.275,0.158-3.408
		c2.117-1.125,3.367-3.092,3.8-5.433c0.95,0.033,1.925,0.075,2.925,0.125c-0.225,1.617-0.408,3.233-0.6,4.842
		c6.233,9.13,1.851,8.019-0.058,9.067c1.85,1.454-0.529-0.18,4.2,2.708c-0.05,0.8-0.158,2.392-0.217,3.192
		c5.525-1.467,11.25-1.675,16.942-1.425c-0.842-9.517-7.845-17.844-3.567-24.683c1.342-0.733,2.683-1.5,4.042-2.267
		c0.908-1.283,1.717-2.692,2.983-3.683c2.508-0.442,5.292,0.167,7.191,1.967c2.425,0.933,4.875,2.133,7.567,2.058
		c1.225-1.067,1.45-2.75,1.717-4.267c0.375-2.733,1.717-5.183,2.808-7.692c-0.233-1.3-0.467-2.6-0.633-3.9
		c1.317-2.683,2.167-5.558,2.875-8.45c2.592,0.25,5.333,0.225,7.792,1.275c2.125,2.467,1.842,5.833,1.975,8.867
		c0.042,3.217,1.808,6.025,2.433,9.117c-0.108,2.592-0.933,5.092-1.142,7.675c0.725-0.033,2.192-0.092,2.917-0.125
		c1.042-3.192,2.317-6.325,4.025-9.225c0.667-0.033,2.008-0.108,2.683-0.142c11.107-11.412,5.076-11.246,8.708-17.392
		c-0.141-1.001-3.125-21.234-2.842-25.117c1.866-1.25,1.592-3.55,1.842-5.5c3.233-1.117,6.55-2.1,10.033-1.942
		c0.033,1.992-0.217,3.967-0.9,5.842c-1.667,4.4,0.6,8.967,0.483,13.467c0.325,0.208,0.983,0.617,1.308,0.825
		c0.775-2.967,1.75-5.933,3.667-8.392c1.85,0.008,3.717-0.008,5.616-0.033c0.467,2.083,0.825,4.183,1.242,6.283
		c1.467,0.425,2.967,0.875,4.45,1.375c-0.142-1.408-0.233-2.817-0.3-4.225c10.411-2.922,10.188,1.259,9.4,7.367
		c0.917,2.017,1.275,4.217,1.384,6.433c3.692,0.575,6.208,3.533,7.383,6.925c-1.242,2.108-1.842,4.492,0.142,6.375
		c0.617,4.617-1.008,9.292,0.559,13.842c1.467,1.142,2.883,2.392,4.525,3.333c0.625-0.458,1.258-0.933,1.908-1.425
		c-0.25-2.875-0.009-5.775-0.367-8.633c-2.511-5.457-3.132-1.443-4.583-13.017c1.975-0.183,4.083-0.817,6.05-0.108
		c1.259,0.975,1.7,2.658,2.567,3.983c1.675-0.775,3.342-1.575,5.058-2.342c0.167-2.55-1.1-5.308,0.2-7.683
		c2.158-4.142,2.184-8.933,3.325-13.392c1.458-0.025,2.942-0.058,4.458-0.092c2.787,4.387-0.898,10.346-0.233,19.358
		c2.033,1.892,3.425,4.633,6.167,5.667c0.7-1.425,1.458-2.85,2.2-4.275c-0.367-0.367-1.1-1.092-1.458-1.458
		c2.366-3.192,7.667-5.525,6.3-10.2c-2.167-2-3.675-4.55-5.366-6.925c-0.867-0.575-1.717-1.158-2.525-1.733
		c-7.199-0.79-2.627-12.683-2.475-13.683c4.308-0.1,8.633,0,12.975-0.042c1.842-4.892,1.683-10.325,4.275-14.983
		c1.359,0,2.742,0,4.158,0c0.592,0.775,1.2,1.55,1.858,2.333c-0.767,2.858-0.95,5.808-1.042,8.75c1.367,0.45,2.75,0.908,4.158,1.4
		c1.167-1.8,2.358-3.583,3.575-5.367c0.908-0.742,1.825-1.492,2.758-2.258c0.933-3.3,2.192-6.517,2.933-9.875
		c0.983,0.017,1.992,0.033,3.033,0.058c0.858,0.758,1.708,1.5,2.65,2.242c-3.148,8.823,0.106,9.759-4.125,15.275
		c0.058,2.95-1.208,6.15-0.075,8.958c1.692,0.192,3.425,0.125,5.167,0.133c-2.358-3.625-1.925-7.892-0.75-11.842
		c1.583,0.675,3.175,1.375,4.792,2.075c0.167,0.842,0.358,1.692,0.583,2.542c2.5-0.125,5.05-0.292,7.509-0.95
		c0.258-0.892,0.558-1.775,0.883-2.65c-1.93-6.597-4.01-10.583-2.392-19.283c6.61,1.08,4.374-1.235,7.117,11.5
		c4.959,2.915,8.43,7.002,11.333,3.275c-4.048-13.769-10.887-18.664-11.692-19.883c0.025-2.067,0.942-3.983,1.6-5.917
		c5.146,1.476,3.687,0.251,5.058,5.358c1.592,1.275,3.258,2.475,4.933,3.675c0.767-0.575,1.567-1.142,2.392-1.708
		c1.986-12.604-1.863-23.34,3.733-31.017c6.292,0.092,3.313,5.049,8.258,9.45c1.625,0.367,3.1,1.175,4.133,2.542
		c-3.66,8.267,0.115,10.467,0.767,20.692c2.333,1.75,4.125,4.083,5.583,6.6c-0.025-1.225-0.025-2.45,0-3.675
		c-0.3-0.183-0.908-0.55-1.208-0.733c-0.392-1.45-0.733-2.883-1.108-4.317c0.392-0.617,0.817-1.233,1.267-1.85
		c1.45-0.958,2.867-1.983,4.292-3.008c-0.167-0.417-0.492-1.242-0.658-1.65c2.183-3.55,1.558-7.9,3.05-11.692
		c-1.057-8.125,0.333-20.791,1.333-21.642c2.592-0.383,5.083,0.633,7.275,1.967c0.183-0.025,0.558-0.075,0.742-0.108
		c2.242-1.625,5.475-2.683,7.95-0.867c0.4,1.375,0.642,2.808,0.983,4.233c1.533,1.633,2.9,3.425,4.083,5.35
		c1.75,0.25,3.542,0.508,5.317,0.858c0.417-0.258,1.25-0.775,1.667-1.033c-0.292-2.725-2.133-5.833,0.025-8.217
		c2.392-3.042,2.233-7.292,0.725-10.692c0.067-0.467,0.208-1.408,0.275-1.883c1.425-1.175,2.825-2.408,4.225-3.65
		c1.058,0.008,2.142,0.025,3.258,0.042c0.817,0.617,1.625,1.225,2.508,1.833c0.525,2.467,0.775,4.992,0.925,7.517
		c10.684,7.015-1.445-0.305,11.559,14.567c3.17,3.682,6.54-4.834,9.691,11.867c-0.283-2.683-1.175-5.6,0.35-8.083
		c3.252-5.698,1.323-20.978,2.192-26.242c-0.233-4.65,1.825-9.45-0.433-13.858c3.1-1.767,6.425,0,9.533,0.783
		c-3.327,8.53-3.505,6.857,3.608,13.725c-11,45.686-0.884,30.279,8.434,28.783c13.448-9.363,12.626-7.537,16.242-3.625
		c-6.271,9.233-23.02,10.649-27.184,12.9c0.509,2.367,0.858,4.767,1,7.192c0.733,0.708,1.475,1.417,2.275,2.133
		c0.65,0.05,1.342,0.117,2.075,0.175c0.467-0.967,1.008-1.917,1.55-2.875c3.083-0.292,6.183-0.875,8.967-2.35
		c-0.033-1.342-0.033-2.675,0.025-4.017c1.383-1.167,2.608-2.533,3.7-4.008c1.833-0.05,3.683-0.008,5.558,0.092
		c0.058,2.433-0.142,4.858-0.575,7.25c0.275,2.017,0.492,4.042,0.733,6.067c1-0.083,2.033-0.158,3.1-0.233
		c-0.217-1.525-0.408-3.042-0.608-4.55c0.408-0.567,0.858-1.125,1.333-1.675c1.092-0.333,2.208-0.667,3.358-1.008
		c-0.892-1.142-1.733-2.275-2.575-3.408c0.366-0.283,1.091-0.858,1.458-1.142c0.033-0.517,0.108-1.533,0.142-2.042
		c-0.5-1.392-0.85-2.825-1.008-4.283c0.667,0.025,1.983,0.092,2.642,0.125c0.95,2.417,2,5.167,5.042,5.383
		c-0.183,1.217-0.333,2.433-0.467,3.658c0.292,1.208,0.575,2.417,0.917,3.633c2.158,1.133,3.833,2.95,4.983,5.108
		c2.35,0.7,4.608,2.142,7.167,1.9c1.567-1.617,0.642-4.358,2.108-6.075c1.317-0.433,2.725-0.425,4.158-0.592
		c0.9-2.058-0.558-3.242-2.192-4.175c0.8-0.292,1.633-0.583,2.492-0.867c0.483-0.683,0.992-1.367,1.533-2.042
		c-1.233-2.083-2.525-4.233-2.833-6.667c1.242-0.975,2.85-1.25,4.35-1.775c-0.135-3.777-0.897-3.102,3.517-4.642
		c0.542-0.692,1.125-1.392,1.725-2.083c-0.725-2.267-1.425-4.525-2.233-6.75c0.383-0.392,1.158-1.192,1.55-1.592
		c-1.075-1.767-2.192-3.5-3.367-5.175c0.317-0.4,0.958-1.192,1.275-1.583c-1.116-2.258-2.083-4.583-2.875-6.958
		c0.475-0.275,1.442-0.842,1.917-1.125c-0.425-1.458-0.808-2.925-1.158-4.392c7.337-1.237,5.499,0.319,6.15,6.133
		c0.925,0.683,1.892,1.375,2.875,2.075c2.517-0.175,5.45-0.808,6.033-3.733c-1.233-1.075-2.391-2.175-3.517-3.308
		c-0.333-1.85-0.808-3.675-1.067-5.525c1.675-0.842,3.533-1.267,5.383-1.708c-0.1,1.308-0.183,2.625-0.233,3.95
		c1.6,0.008,3.241,0.033,4.9,0.058c-0.008-1.633-0.042-3.267-0.033-4.9C2522.175,125.673,2524.475,120.782,2527.9,117.857
		 M2510.15,140.915c0.333,1.308,1.2,2.367,2.058,3.417c1.358-0.025,2.742-0.042,4.158-0.05c-0.05-1.392-1.183-2.333-1.917-3.367
		C2512.983,140.915,2511.55,140.915,2510.15,140.915 M2519.675,150.107c0.925,2.183,2.933,2.683,5.15,2.383
		c0.192-0.942,0.467-1.875,0.725-2.808c-1.258-0.442-2.491-0.883-3.7-1.317C2521.092,148.94,2520.367,149.523,2519.675,150.107
		 M2403.483,160.765c-1.633,3.7-3.717,9.708,0.483,12.392c0.125,1.083,0.233,2.183,0.55,3.258c1.3,2.017,4.083,0.983,6.108,1.225
		c0.733-1.408,1.575-2.783,2.733-3.917C2413.606,170.578,2407.008,160.326,2403.483,160.765 M2375.45,166.115
		c-0.5,1.658-0.342,3.342,0.375,4.917c1.592-0.083,3.183-0.175,4.842-0.292C2379.283,168.815,2377.442,167.323,2375.45,166.115
		 M2528.058,175.857c0.283,1.35,1.958,2.083,1.742,3.608c-0.492,0.2-1.467,0.617-1.95,0.825c-8.36-2.551-2.384,0.399-10.633,0.542
		c-0.642-1.767-2.5-1.533-3.967-1.717c-0.108,0.675-0.325,2.025-0.433,2.7c1.25,1.142,2.667,2.125,3.958,3.267
		c-1.083,1.025-2.25,1.942-3.375,2.875c0.242,0.225,0.725,0.675,0.967,0.9c2.092,0.9,3.992,2.225,5.667,3.8
		c2,0.392,3.558-0.633,4.633-2.275c-0.667-1.85-1.15-3.733-1.392-5.667c2.425-1.142,3.542-5.058,6.683-4.15
		c2.608,0.842,3.308-2.392,3.85-4.217c0.833-0.217,1.708-0.425,2.608-0.642c0.175-0.542,0.525-1.633,0.692-2.175
		c-0.175-0.642-0.542-1.925-0.725-2.567c-1.892-0.025-3.758-0.117-5.583,0.067C2529.5,172.39,2528.708,174.14,2528.058,175.857
		 M2526.575,190.015c1.4,0.2,3.583,0.767,4.15-1.108C2529.125,187.173,2527.833,189.007,2526.575,190.015 M2466.208,190.873
		c-0.133,0.983-0.233,1.958-0.3,2.942c0.258,0.542,0.775,1.625,1.033,2.167c0.925-0.075,1.875-0.142,2.867-0.217
		C2470.233,193.373,2469.033,190.548,2466.208,190.873 M2526.067,194.523c-1.075,1.25,1.158,2.483,2,1.292
		C2529.042,194.565,2526.825,193.323,2526.067,194.523 M2542.6,212.798c-0.15,1.317-0.267,2.625-0.325,3.95
		c1.9,0.175,4.55,2.917,5.975,0.783c0.233-1.808-1.35-3.317-1.933-4.95C2545.042,212.648,2543.8,212.715,2542.6,212.798
		 M2284.25,225.532c-1.883,0.558,0.225,3.208,1.492,2.025C2286.392,226.623,2285.225,225.332,2284.25,225.532 M2554.425,227.648
		C2554.317,230.44,2556.933,226.54,2554.425,227.648 M2303.225,240.965c2.717-0.025,5.441,0,8.191,0
		c0.083,1.133,0.15,2.267,0.3,3.408c1.75-0.192,3.983,0.417,5.242-1.217c-1.759-0.517-3.45-1.067-5.083-1.783
		c-0.292-2.242-0.683-4.483-0.517-6.75c-0.558-0.642-1.083-1.292-1.592-1.933c-1.025-0.15-2.017-0.308-2.983-0.467
		C2304.05,234.273,2301.892,237.432,2303.225,240.965 M2061.992,278.948c-0.508,1.233-1.025,2.458-1.342,3.742
		c1.983,1.575,4.567,1.675,7.017,1.733C2065.892,282.49,2064.433,280.082,2061.992,278.948 M2045.25,281.282
		c-0.85,1.117,1.1,2.308,1.883,1.25C2047.917,281.407,2045.967,280.215,2045.25,281.282 M2228.742,284.448
		c1.083,1.1,2.4,1.892,3.625,2.875c0.717-0.208,1.475-0.417,2.258-0.617c-0.483-0.808-0.942-1.617-1.367-2.425
		C2231.733,284.298,2230.208,284.34,2228.742,284.448 M2080.083,291.165c-0.408,1.35,0.075,1.808,1.458,1.375
		C2081.892,291.19,2081.408,290.732,2080.083,291.165 M2056.825,321.082c-0.458,1.35,0,1.817,1.384,1.392
		C2058.617,321.115,2058.158,320.648,2056.825,321.082 M2007.433,322.532c-0.342,1.375,2.017,1.942,3.05,1.492
		C2010.725,322.707,2008.4,321.865,2007.433,322.532 M1931.033,344.323c1.687,5.876,0.976,1.555,3.283,9.617
		c2.308,0.617,2.35,3.258,2.6,5.2c0.717,0.6,1.458,1.208,2.217,1.825c0.533-0.025,1.592-0.075,2.125-0.1
		c0.508-1.442,1.425-2.6,3.083-2.742c-2.39-10.549-3.05-4.724-6.867-13.4c-1.217-0.583-2.267-1.4-3.325-2.158
		C1932.725,342.165,1931.917,343.548,1931.033,344.323 M1914.058,349.44c0.058,1.633,0.792,3.067,2.05,4.117
		c0.558-0.3,1.675-0.908,2.233-1.217c-0.058-1.042-0.092-2.075-0.108-3.108C1916.825,349.282,1915.425,349.348,1914.058,349.44
		 M1970.183,352.848C1970.6,353.273,1970.6,353.273,1970.183,352.848 M1852.117,356.282c0.05,1.075,0.133,2.15,0.233,3.233
		c-0.292,0.358-0.867,1.067-1.15,1.417c0.567,2.692-0.992,8.475,3.358,8.05c-1.325-3.5-1.875-7.233-2.108-10.95
		c0.425-0.283,1.267-0.858,1.683-1.15c-0.283-0.367-0.842-1.108-1.125-1.483C1852.783,355.615,1852.342,356.065,1852.117,356.282
		 M1956.033,356.632c0.392,0.667,1.175,1.992,1.567,2.65c0.3-1.192,0.533-2.4,0.875-3.592
		C1957.867,355.923,1956.642,356.398,1956.033,356.632 M1921.45,366.665c-3.125,2.767-5.108,6.625-5.942,10.667
		c1.854,6.88,1.544,4.931-0.308,9.833c1.758,2.892,5.75,2.725,7.85,0.275c0.458-1.633,1.7-2.8,2.783-4.05
		c0.85-1.583,1.442-3.292,2.217-4.925c0.228-1.3,3.195-7.368,4.617-7.958c0.808-2.325-1.45-3.683-2.675-5.283
		c-0.042-1.275-0.042-2.542-0.025-3.808c-0.883-0.6-1.75-1.175-2.608-1.733C1924.758,361.39,1923.808,364.665,1921.45,366.665
		 M1743.642,387.24c-0.808,1.542,2.7,2.408,2.775,0.742C1745.908,387.082,1744.467,386.548,1743.642,387.24 M1765.85,402.723
		c0.142,2.025,2.217,2.717,3.975,2.342c-0.242-0.842-0.475-1.683-0.692-2.517C1768,402.382,1766.908,402.44,1765.85,402.723
		 M1926.375,406.665c0.242,2.683,0.75,5.425,2.475,7.608c1.042-0.242,1.617-1.425,2.525-2c0.267-0.433,0.8-1.317,1.067-1.758
		c0.017-0.975,0.05-1.942,0.117-2.9C1930.567,406.882,1928.45,406.673,1926.375,406.665 M1733.342,411.032
		c0.217,1.033,0.633,2.008,1.033,3.008c2.333,0.783,4.667,1.65,7.158,1.825c0.217,2.567,0.792,5.142,0.558,7.733
		c0.158,0.65,0.35,1.3,0.575,1.958c1.992,1.5,2.608,4.55,5.575,4.65c-0.75-0.775-1.392-1.6-1.95-2.483
		c1.1-0.058,2.225-0.108,3.367-0.142c0.308-0.817,0.633-1.625,0.983-2.425c-0.6-2.583-1.283-5.15-2.592-7.458
		c-0.508-0.067-1.516-0.208-2.017-0.283c-1.8-1.333-3.675-2.592-5.767-3.383c-0.317-0.333-0.958-1.008-1.275-1.35
		c-0.483-0.042-1.458-0.125-1.942-0.167C1735.958,411.657,1734.842,410.557,1733.342,411.032 M1598.908,412.198
		c-0.258,1.225-0.475,2.467-0.65,3.708c0.467-0.05,1.408-0.15,1.875-0.2C1599.733,414.515,1599.392,413.34,1598.908,412.198
		 M1781.817,417.765c-1.042,0.833,0.092,3.125,1.358,2.142C1784.175,419.057,1783.05,416.757,1781.817,417.765 M1761.933,421.198
		c-0.4,1.333,0.092,1.808,1.475,1.425C1763.767,421.282,1763.275,420.807,1761.933,421.198 M1729.708,423.882
		c0.133,2.625-0.225,5.242-0.417,7.858c0.917,1.458,2.142,2.692,3.3,3.992c1.066,0.058,2.158,0.175,3.267,0.35
		c1.575,1.767,3.083,3.808,5.8,3.342c-0.25,2.142-0.55,4.358-2.033,6.042c-1.525,0.842-2.917,1.883-4.3,2.908
		c1.342,2.275,2.808,4.542,3.308,7.192c0.95,0.475,1.933,0.967,2.925,1.475c0.525-1,1.108-1.983,1.683-2.975
		c3.25,0.225,5.283-2.192,7.875-3.642c-0.733-0.942-1.467-1.867-2.167-2.792c-1.058-0.067-2.083-0.133-3.092-0.192
		c-0.333-2.142,0.5-4.092,2.308-5.292c0.075-1.242,0.158-2.475,0.267-3.708c0.575-0.558,1.167-1.117,1.783-1.667
		c-0.392-0.808-0.767-1.608-1.125-2.4c-2.775,0.275-5.075-1.242-7.6-1.992c-0.267-0.258-0.8-0.767-1.067-1.017
		c-0.475-0.117-1.433-0.358-1.917-0.475c-0.292-0.392-0.883-1.183-1.175-1.575c-0.542-0.025-1.625-0.075-2.167-0.108
		C1733.633,427.19,1732.192,424.765,1729.708,423.882 M1780.2,436.74c0.85,0.825,1.733,1.667,2.609,2.517
		c0.6,0.017,1.8,0.058,2.4,0.075c0.675-2.175-0.875-4.075-2.667-5.033C1781.3,434.273,1781.008,436.057,1780.2,436.74
		 M1554.008,439.373c0.875-1.108,3.208-2.417,1.433-3.867C1553.092,434.707,1553.075,437.998,1554.008,439.373 M1540.95,440.265
		c-6.279,6.49-3.492,7.838,0.208,9.192c0.625-1.325,1.283-2.633,1.967-3.933c0.292-2.133,1.033-4.15,1.567-6.225
		C1543.417,438.473,1541.825,439.265,1540.95,440.265 M1725.108,444.415c-0.375,1.358,0.108,1.808,1.467,1.342
		C1726.917,444.373,1726.425,443.932,1725.108,444.415 M1753.325,449.132c0.017,0.467,0.05,1.4,0.067,1.867
		c1.125-0.075,2.275-0.167,3.442-0.258C1756.475,448.998,1754.617,449.365,1753.325,449.132 M1635.825,454.565
		c-1.267,2.308-0.833,4.983-0.617,7.492c0.817,0.675,1.617,1.458,2.35,2.283c0.683-2.658,1.783-5.183,3.208-7.533
		c-0.608-1.233-1.192-2.467-1.742-3.7C1638.05,453.798,1636.942,454.24,1635.825,454.565 M1734.892,457.423
		c-0.392,1.75,0.058,3.317,1.417,4.525c-0.917,0.825-1.467,1.917-1.975,3c0.225-0.067,0.667-0.217,0.892-0.283
		c2.071-2.949,1.745-1.786,4.867-2.092c0.817-1.683-0.258-3.292-0.809-4.85C1737.8,457.59,1736.342,457.482,1734.892,457.423
		 M1529.4,460.44c0.783,2.75,3.358,4.533,6.25,3.95c-0.492-2.058-1.692-4.633-3.925-5.108
		C1530.817,459.448,1528.367,458.782,1529.4,460.44 M1502,464.315c-0.308,1.15,0.125,1.575,1.292,1.258
		C1503.558,464.407,1503.133,463.982,1502,464.315 M1750.375,467.715c-0.133,1.042-0.25,2.083-0.333,3.142
		c0.608,0,1.825-0.008,2.425-0.008c-0.158-0.925-0.3-1.833-0.425-2.742C1751.625,468.007,1750.792,467.807,1750.375,467.715
		 M1620.858,475.107c0.517,0.925,1.033,1.867,1.65,2.775c0.833-0.758,1.383-1.758,1.775-2.825
		C1623.308,473.99,1621.917,474.682,1620.858,475.107 M1258.9,487.232c0.6,0.642,1.708,0.325,2.533,0.517
		c-0.042-1.083-0.058-2.167-0.058-3.242c-0.625-0.183-1.858-0.558-2.483-0.75C1258.767,484.898,1258.542,486.09,1258.9,487.232
		 M1264.325,493.74c-0.75,1.008-0.575,1.642,0.525,1.875C1265.567,494.59,1265.392,493.965,1264.325,493.74 M1257.817,495.973
		c1.758,0.85,4,0.758,4.067-1.692C1260.442,494.423,1258.2,494.065,1257.817,495.973 M1262.6,496.873
		C1262.917,499.64,1264.983,495.423,1262.6,496.873 M1385.108,498.84c-0.767,0.983-0.567,1.55,0.6,1.692
		C1386.442,499.532,1386.242,498.965,1385.108,498.84 M1555.25,503.107c-0.15,1.525-1.267,1.983-2.567,2.142
		c-0.658,1.05-2.183,2.3-0.858,3.5c0.917-2.958,3.683-1.467,5.817-1.125C1557.033,506.007,1556.233,504.49,1555.25,503.107
		 M1384.375,506.29c-0.683,0.592-0.817,2.683,0.392,2.625C1385.417,508.307,1385.558,506.198,1384.375,506.29 M1189.425,514.657
		c-1.1,0.842,0.15,3.058,1.4,2.142C1191.825,515.932,1190.642,513.74,1189.425,514.657 M1153.825,519.715
		c0.108,1.542,0.042,3.367,1.8,4.017c0.017-1.733,0.008-3.458-0.008-5.183C1155.008,518.932,1154.408,519.323,1153.825,519.715
		 M1188.417,519.323C1188.675,522.073,1190.833,517.932,1188.417,519.323 M1223.383,520.373c0.075,1.175,0.183,2.358,0.325,3.542
		c0.683,0.383,1.375,0.783,2.083,1.183C1225.125,523.448,1224.675,521.665,1223.383,520.373 M1186.917,521.948
		c-0.233,1.417-0.242,2.85-0.25,4.292c0.875-0.45,1.758-0.9,2.65-1.358C1188.55,523.89,1188.483,521.832,1186.917,521.948
		 M1249.142,524.64c-0.708,0.658-0.542,2.625,0.608,2.642C1250.417,526.607,1250.275,524.648,1249.142,524.64 M1185.45,527.207
		c-0.525,2.775-1.417,5.85,0.075,8.483c1.367-1.692,3.575-3.625,2.4-6.033C1187.667,528.657,1186.7,525.907,1185.45,527.207
		 M1280.142,527.348c-0.758,0.958-0.542,1.508,0.658,1.65C1281.525,528.023,1281.3,527.473,1280.142,527.348 M1277.942,537.865
		c0.108,0.592,0.225,1.192,0.367,1.792c-0.733,0.925-1.4,1.892-1.983,2.908c3.425,0.583,3.175-4.008,3.667-6.275
		c2.008-0.075,3.583-4.917,0.858-4.567C1279.608,533.623,1278.95,535.84,1277.942,537.865 M1223.15,532.34
		c0.417,1.892,0.967,3.742,1.55,5.592c0.733-0.942,1.65-1.792,2.092-2.933C1226.525,533.14,1224.75,532.532,1223.15,532.34
		 M1183.658,536.107c-0.792,0.825-0.4,2.558,0.742,2.883C1186.1,538.715,1185.383,535.107,1183.658,536.107 M1265.717,538.69
		c0.408,2.583,0.358,5.733,2.575,7.55c0.958-1.075,1.925-2.142,2.867-3.233c-0.6-0.208-1.808-0.617-2.408-0.825
		C1268.183,540.657,1267.367,539.207,1265.717,538.69 M1183.017,547.823c0.342-2.042,0.683-4.092,0.783-6.167
		C1182.067,542.998,1180.75,546.39,1183.017,547.823 M1226.883,542.015C1227.317,542.482,1227.317,542.482,1226.883,542.015
		 M1207.225,544.773c-0.925,3.892-1.042,8.017,0.317,11.817c-1.8,0.225-3.517,0.767-5.175,1.442c-0.4,2.575-0.658,5.225,0.183,7.758
		c-0.575,0.033-1.717,0.108-2.292,0.15c0.267,1.883,0.183,3.8-0.133,5.683c0.567,1.658,1.133,3.333,1.7,5.017
		c0.383,0.242,1.142,0.733,1.517,0.975c0.192-0.908,0.408-1.817,0.642-2.708c1.433-0.658,2.908-1.492,1.792-3.25
		c1.883,0.958,3.967,1.475,6.092,1.05c-0.325-1.517-0.692-3.033-1.067-4.525c0.742,0.417,1.5,0.833,2.267,1.267
		c0.108,0.9,0.233,1.808,0.375,2.725c1.075,0.817,2.125,1.7,3.2,2.558c-0.367,0.708-0.725,1.425-1.067,2.158
		c1.008,1.6,2.517,2.467,4.383,1.6c0.017-0.625,0.042-1.883,0.05-2.508c-0.358-0.017-1.083-0.033-1.442-0.05
		c-0.667-1.65-1.342-3.283-2.008-4.917c1.133-0.042,2.275-0.075,3.442-0.092c-0.008-1.142-0.008-2.275,0.017-3.408
		c-0.3-0.333-0.892-0.992-1.192-1.325c-0.2-3.467-1.917-6.558-2.442-9.942c-0.483-0.167-1.458-0.483-1.942-0.642
		c-0.358-4.317-3.05-7.633-4.758-11.433C1208.85,544.365,1208.025,544.565,1207.225,544.773 M1255.267,544.407
		c-0.942,0.775,0.183,2.733,1.308,1.967C1257.483,545.565,1256.408,543.515,1255.267,544.407 M1111.833,547.732
		c-1.092,0.825,0.083,3.058,1.342,2.117C1114.242,549.007,1113.075,546.748,1111.833,547.732 M1107.158,548.648
		c0.758,1.167,1.567,2.342,2.408,3.483c0.058-0.633,0.175-1.892,0.233-2.525C1108.908,549.273,1108.025,548.957,1107.158,548.648
		 M1134.933,551.265c1.4,2.25,2.508,4.883,4.842,6.358c-1.1-2.275-2.483-4.4-3.492-6.708
		C1135.942,551.007,1135.267,551.182,1134.933,551.265 M1359.967,552.582c0.025,0.325,0.058,0.983,0.083,1.317
		c1.55,0.633,2.375,2.142,3.308,3.458c0.233-1.608,0.467-3.217,0.708-4.817C1362.692,552.532,1361.317,552.548,1359.967,552.582
		 M1107.067,554.323c-1.75,4.408-2.8,9.167-5.075,13.383c0.95,1.683,0.542,4.317,2.808,4.933c-0.017,0.642-0.05,1.917-0.058,2.558
		c0.867,0.592,1.75,1.183,2.642,1.792c0.267,0.733,0.55,1.467,0.85,2.208c0.642-0.05,1.925-0.158,2.567-0.208
		c1.325-2.983,2.175-6.3,1.458-9.55c-0.997-3.189,3.091-6.692-1.8-11.417C1109.583,556.673,1109.117,554.04,1107.067,554.323
		 M1115.042,557.415c0.708-1.025,0.058-2.75-1.083-3.117C1112.342,554.673,1113.542,558.015,1115.042,557.415 M1225.167,554.232
		c-0.358,1.308,0.15,1.783,1.508,1.433C1227.025,554.315,1226.525,553.84,1225.167,554.232 M1230.917,554.49
		C1229.617,556.957,1233.675,554.607,1230.917,554.49 M1403.583,554.148c-0.275,0.475-0.833,1.425-1.117,1.9
		c1.467-0.167,2.942-0.342,4.433-0.55C1406.242,554.223,1404.758,554.357,1403.583,554.148 M1269.408,555.357
		c-1.15,0.05-1.292,2.025-0.075,2.108C1270.458,557.448,1270.583,555.39,1269.408,555.357 M1143.592,559.332
		c0,2.083,1.058,3.85,2.592,5.208c0.142-0.7,0.425-2.1,0.567-2.792C1145.692,560.923,1144.658,560.107,1143.592,559.332
		 M1158.55,559.715c0.458,4.317,1.225,8.592,1.633,12.917c1.15-0.217,2.325-0.533,3.533-0.525c0.958,1.008,1.217,2.408,1.492,3.733
		c0.45,0.125,1.35,0.375,1.792,0.5c-1.042,2.475,0.417,5.158,3.292,4.692c-2.342-3.508-4.333-7.208-6.292-10.933
		c-0.617,0.008-1.85,0.025-2.467,0.033c0.15-3.85,0.292-7.817-1.925-11.175C1159.342,559.148,1158.817,559.523,1158.55,559.715
		 M1368.433,560.532c-0.075,1.242-0.117,2.483-0.125,3.733c0.425,0.008,1.283,0.017,1.708,0.025
		c0.075,1.617,0.408,3.208,0.983,4.733c1.117,0.467,2.225,0.942,3.383,1.4C1374.311,567.076,1369.434,561.14,1368.433,560.532
		 M1240.908,561.957C1239.625,564.473,1243.642,562.09,1240.908,561.957 M1295.533,564.423c3.254,2.901,3.942,0.389,2.942-0.208
		C1297.75,563.307,1296.408,564.498,1295.533,564.423 M1281.883,564.432c-1.075,1.258,1.325,1.792,2.008,0.925
		C1285.042,564.107,1282.508,563.457,1281.883,564.432 M1165.775,566.165C1164.642,568.69,1168.55,566.132,1165.775,566.165
		 M1226.758,566.24c-0.725,0.875-0.417,2.608,0.742,2.992C1228.967,568.99,1228.083,565.832,1226.758,566.24 M1299.775,565.607
		c0.008,1.4,0.717,2.192,2.133,2.375c-0.15,2.325-2.425,2.2-4.167,2.25c-0.85,1.525-2.3,2.6-3.1,4.15
		c2.792-0.4,5.592-0.875,8.433-0.517c0.008,0.525,0.033,1.575,0.042,2.1c0.683-0.017,2.05-0.05,2.733-0.067
		c0.225-0.875,0.467-1.742,0.708-2.608c1.092,0.25,2.225,0.533,3.342,0.817c0.283-1.408,0.517-2.833,0.692-4.258
		c-1.65-0.058-2.883-0.992-4.033-2.042c-1.108-0.175-2.2-0.283-3.283-0.317C1302.117,566.815,1300.958,566.165,1299.775,565.607
		 M1196.233,575.998c-1.233,1.35-2.5,2.692-3.475,4.25c0.133,0.35,0.4,1.058,0.533,1.408c-0.158,0.942-0.275,1.908-0.392,2.875
		c1.808-0.225,4-0.85,5.175,1.025c1.458,0.258,3.533-0.542,4.192,1.425c2.9-3.442-2.725-5.6-2.442-9.008
		c-0.633-0.683-1.25-1.358-1.858-2.025C1197.533,575.957,1196.667,575.982,1196.233,575.998 M1297.992,579.315
		c0.558,0.658,1.133,1.308,1.733,1.967c0.467,0.925,0.967,1.85,1.483,2.792c1.333-1.433,3.258-1.583,5.058-2.008
		c0.325-1.275,0.442-2.592,0.675-3.867C1304.217,579.807,1300.983,579.182,1297.992,579.315 M1010.925,580.298
		c-1.45,0.475-0.725,3,0.792,2.633C1013.3,582.498,1012.358,579.973,1010.925,580.298 M1165.617,584.648
		c0.7-0.175,2.092-0.525,2.792-0.708c-0.408-0.783-0.817-1.55-1.233-2.3C1165.633,581.815,1165.958,583.557,1165.617,584.648
		 M1121.033,586.598c0.975,0.133,1.408-0.283,1.292-1.275C1121.275,582.84,1118.533,585.523,1121.033,586.598 M1175.25,586.165
		c-0.733,0.908,0.033,2.333,0.942,2.833C1177.708,588.748,1176.75,585.398,1175.25,586.165 M1216.292,586.073
		c-0.825,1.092,1.117,2.25,1.933,1.317C1219.083,586.24,1217.083,585.107,1216.292,586.073 M1196.383,590.565
		c1.692,0.475,3.717,1.75,5.25,0.175c-0.25-1.167-0.625-2.283-0.967-3.392C1198.65,587.482,1197.533,589.148,1196.383,590.565
		 M1191.133,589.307c-0.675,0.817-1.292,1.692-2.05,2.417c-1.925,0.058-3.767-0.642-5.625-0.942c0.142,2.192-0.275,4.4-2.508,5.317
		c0.05,1.158,0.125,2.317,0.225,3.483c0.558-0.625,1.133-1.25,1.708-1.867c0.442,0.008,1.333,0.033,1.783,0.042
		c0.475,1.267,1.008,2.617,2.375,3.2c0.175,1.508,0.325,3.017,0.483,4.542c0.683-0.525,1.392-1.042,2.117-1.542
		c0.467-0.867,0.975-1.717,1.492-2.558c0.875-0.65,1.758-1.308,2.617-2c-1.983-0.142-3.958-0.167-5.917-0.175
		c0.35-1.425,0.15-3.458,2.108-3.583c0.108-0.958,0.233-1.908,0.375-2.85c1.2-0.383,4.358,0.358,3.783-1.767
		C1194.133,589.282,1192.367,589.323,1191.133,589.307 M1001.375,597.723c0.058-1.85,0.15-3.7,0.158-5.542
		C998.625,593.173,1000.308,595.957,1001.375,597.723 M1122.483,592.607c-0.975,1.208,1.3,2.408,2.192,1.483
		C1125.592,592.848,1123.367,591.682,1122.483,592.607 M1124.467,597.823c-0.283,1.35-0.542,2.717-0.85,4.075
		c0.283,0.8,0.6,1.608,0.958,2.408c1.733,0.183,2.817-1.417,3.85-2.55c-0.525-1.475-1.383-2.792-2.083-4.167
		C1125.875,597.648,1124.942,597.765,1124.467,597.823 M1190.75,609.373c1.175-0.667,1.208-1.383,0.083-2.15
		C1189.608,607.873,1189.575,608.59,1190.75,609.373 M1120.45,623.848c0.975-0.483,1.967-0.967,2.958-1.442
		c-0.183-1.158-0.367-2.3-0.55-3.442C1121.4,620.215,1120.642,621.957,1120.45,623.848 M524.608,713.423
		c-1.167,2.825-1.817,6.167-4.425,8.092c1.3,4.892,3.767,9.392,5.433,14.175c0.158,0.225,0.467,0.675,0.625,0.9
		c0.717-4.683-0.067-9.35-1.1-13.908C524.283,719.64,525.05,716.498,524.608,713.423 M588,739.165
		c3.475-0.85,4.825-4.483,6.025-7.442c0.025-3.1-0.567-6.175-0.9-9.242C590.275,727.615,589.342,733.515,588,739.165
		 M510.833,734.515c-0.942,0.742-0.542,2.092-0.783,3.133c-1.267,1.008-2.833,1.725-3.7,3.15c0.592,0.008,1.783,0.017,2.375,0.025
		c0.842-1.825,1.6-3.742,3.008-5.217c2.217-0.667,4.567,0.167,6.658,0.967c-1.825-2.492-1.983-5.7-2.225-8.658
		C514.425,730.148,512.942,732.582,510.833,734.515 M518.442,737.782c-0.35,1.358,0.142,1.817,1.475,1.375
		C520.25,737.782,519.758,737.323,518.442,737.782 M874.392,736.973c-0.542,1.2-1.05,2.425-1.592,3.625
		c-1.025,1.05-1.875,2.242-2.608,3.508c0.891,4.274,0.095,1.771,1.65,6.867l0.733-0.033c0.333-1.525,0.692-3.033,1.058-4.542
		c1.308-0.358,1.508-1.583,1.725-2.742c0.308-0.317,0.933-0.95,1.242-1.267C876.125,740.482,875.758,738.473,874.392,736.973
		 M518.8,740.832c-1.117,3.15-1.475,6.467-1.858,9.775c0.725-0.117,1.458-0.225,2.2-0.317c0.775-2.05,1.758-4,3.025-5.775
		C521.65,742.765,520.375,741.598,518.8,740.832 M595.742,744.257c-1.825,3.067-4.342,5.642-6.275,8.642
		c-1.258,0.3-2.333,0.858-2.425,2.325c2.683-1.625,5.692-0.55,8.333,0.55c0.2,2.2,0.392,4.4,0.617,6.617
		c1.483-2.092,3.108-4.833,1.508-7.317c0.108-0.867,0.225-1.725,0.358-2.558c0.425-0.283,1.283-0.85,1.708-1.125
		c1.05-1.192-0.458-2.183-0.908-3.233C597.767,746.765,597.783,744.457,595.742,744.257 M473.342,757.423
		c-0.4,0.917-0.783,1.842-1.175,2.775c0.083,0.292,0.25,0.883,0.333,1.175c-0.8,1.133-1.592,2.275-2.4,3.4
		c0.308,1.867,1.05,3.683,2.583,4.892c0.475,0.817,0.942,3.267,2.3,2.217c0.325-0.817,0.625-1.642,0.883-2.467
		C474.925,765.448,475.25,761.148,473.342,757.423 M580.183,761.423c0.233,1.642,0.492,3.317,0.95,4.933
		c0.342-1.892,0.583-3.792,0.783-5.692c0.475-0.692,0.958-1.383,1.442-2.058C582.3,759.54,581.242,760.482,580.183,761.423
		 M843.9,766.398c0.692,0.9,2.325-0.317,1.767-1.258C844.917,764.257,843.283,765.398,843.9,766.398 M461.7,790.465
		c-0.075,1.367-0.117,2.75-0.167,4.15c-0.258,0.567-0.783,1.7-1.042,2.267c1.275-0.042,2.55-0.075,3.833-0.1
		c-0.108-2.983-0.108-5.967,0.025-8.942C463.567,788.798,462.858,789.898,461.7,790.465 M743.542,793.523
		C744.033,793.973,744.033,793.973,743.542,793.523 M746.1,804.54c-0.892,0.908,0.4,3.033,1.583,2.108
		C748.65,805.69,747.3,803.582,746.1,804.54 M652.65,833.765C653.1,834.265,653.1,834.265,652.65,833.765 M96.767,1046.923
		c-0.492,1.042,0.258,2.375,1.067,3.092C99.083,1049.665,97.967,1046.673,96.767,1046.923 M111.608,1052.365
		c-0.017,0.608-0.058,1.825-0.075,2.433c1.842,1.808,4.108,3.267,5.5,5.517c1.283-1.775,3.05-3.183,3.867-5.267
		c-1.275-0.058-2.542-0.083-3.808-0.1C115.567,1053.523,113.708,1052.498,111.608,1052.365z"/>
	<path d="M1386.175,470.423c0.625-0.092,1.875-0.258,2.5-0.342c0.725,4.35-1.525,8.308-2.042,12.55
		c-0.417,0.275-1.258,0.817-1.683,1.083c-0.233-1.717-0.417-3.417-0.625-5.117c1.25-1.85,0.033-3.742,0.15-5.692
		c0.517-0.225,1.542-0.667,2.05-0.892C1386.442,471.615,1386.267,470.815,1386.175,470.423z"/>
	<path d="M1165.025,516.79c0.55,0.042,1.65,0.133,2.2,0.183c-0.15,2.175-0.042,5.658-3.025,5.817
		C1164.417,520.773,1164.717,518.782,1165.025,516.79z"/>
	<path d="M244.4,731.165C244.833,731.607,244.833,731.607,244.4,731.165z"/>
	<path d="M266.933,736.948C267.233,737.482,267.233,737.482,266.933,736.948z"/>
	<path d="M267.658,738.507C270.183,737.34,267.633,741.273,267.658,738.507z"/>
	<path d="M213.8,752.615c-0.6-0.808,0.225-2.517,1.292-2.208C215.75,751.182,214.858,752.923,213.8,752.615z"/>
	<path d="M351.95,778.673c2.892-0.275,5.808-0.3,8.708,0.017c0,1.142-0.008,2.3-0.042,3.467c-0.283-1.033-0.55-2.058-0.775-3.083
		c-2.542,0.2-5.092,0.208-7.633,0.092c-1.292,4.142-0.642,8.408-0.125,12.608c-0.817,3.117,0.025,6.65-1.475,9.525
		c0.108-3.475,0.942-6.883,0.975-10.35C350.817,786.89,350.542,782.632,351.95,778.673z"/>
	<path d="M303.567,807.04C304.067,807.398,304.067,807.398,303.567,807.04z"/>
	<path d="M347.033,816.973c0.6-0.692,2.683-0.733,2.583,0.467C349.008,818.09,346.925,818.157,347.033,816.973z"/>
	<path d="M342.942,870.24c0.967-0.767,1.55-0.583,1.758,0.558C343.725,871.548,343.142,871.365,342.942,870.24z"/>
	<path d="M310.25,883.515C312.733,882.265,310.317,886.29,310.25,883.515z"/>
</g>
</svg>
