<?xml version="1.0" encoding="UTF-8" standalone="no"?>
<svg
   xmlns:dc="http://purl.org/dc/elements/1.1/"
   xmlns:cc="http://creativecommons.org/ns#"
   xmlns:rdf="http://www.w3.org/1999/02/22-rdf-syntax-ns#"
   xmlns:svg="http://www.w3.org/2000/svg"
   xmlns="http://www.w3.org/2000/svg"
   viewBox="0 0 287.375 283.21249"
   height="283.21249"
   width="287.375"
   xml:space="preserve"
   version="1.1"
   id="svg8805"><metadata
     id="metadata8811"><rdf:RDF><cc:Work
         rdf:about=""><dc:format>image/svg+xml</dc:format><dc:type
           rdf:resource="http://purl.org/dc/dcmitype/StillImage" /><dc:title></dc:title></cc:Work></rdf:RDF></metadata><defs
     id="defs8809"><clipPath
       id="clipPath8825"
       clipPathUnits="userSpaceOnUse"><path
         id="path8827"
         d="M 1407,1349 C 971,1080 778,609 384,283 c -47,15 -90,39 -134,58 368,340 639,726 984,1109 45,-5 90,5 120,29 54,-16 35,-93 53,-130" /></clipPath><linearGradient
       id="linearGradient8829"
       spreadMethod="pad"
       gradientTransform="matrix(150.001,-159.997,-1205.32,-1130.02,1358.22,1545.34)"
       gradientUnits="userSpaceOnUse"
       y2="0"
       x2="1"
       y1="0"
       x1="0"><stop
         id="stop8831"
         offset="0"
         style="stop-opacity:1;stop-color:#ffc200" /><stop
         id="stop8833"
         offset="0.145682"
         style="stop-opacity:1;stop-color:#f9de85" /><stop
         id="stop8835"
         offset="0.174157"
         style="stop-opacity:1;stop-color:#f9de85" /><stop
         id="stop8837"
         offset="1"
         style="stop-opacity:1;stop-color:#bb9f26" /></linearGradient><clipPath
       id="clipPath8847"
       clipPathUnits="userSpaceOnUse"><path
         id="path8849"
         d="m 2299,1450 c -158,-13 -360,-33 -475,9 -105,-117 -175,-253 -269,-379 -73,142 -26,333 -134,466 -149,-11 -298,6 -446,-15 109,110 240,200 350,317 -25,135 -31,253 5,379 l 53,24 c -2,-121 145,-160 211,-240 151,2 299,132 441,188 -58,-120 -78,-256 -115,-384 51,-129 187,-272 336,-332 l 43,-33" /></clipPath><radialGradient
       id="radialGradient8851"
       spreadMethod="pad"
       gradientTransform="matrix(624.922,0,0,-624.922,1637,1665.5)"
       gradientUnits="userSpaceOnUse"
       r="1"
       cy="0"
       cx="0"
       fy="0"
       fx="0"><stop
         id="stop8853"
         offset="0"
         style="stop-opacity:1;stop-color:#fffffc" /><stop
         id="stop8855"
         offset="0.719101"
         style="stop-opacity:1;stop-color:#ffff00" /><stop
         id="stop8857"
         offset="0.95407248"
         style="stop-opacity:1;stop-color:#ff8800" /><stop
         id="stop8859"
         offset="1"
         style="stop-opacity:1;stop-color:#ff8800" /></radialGradient></defs><g
     transform="matrix(1.25,0,0,-1.25,0,283.2125)"
     id="g8813"><g
       transform="scale(0.1,0.1)"
       id="g8815"><path
         id="path8817"
         style="fill:#000000;fill-opacity:1;fill-rule:nonzero;stroke:none"
         d="m 1483,2227 c 70,-55 122,-126 212,-129 132,25 273,113 398,163 35,-149 -61,-313 -67,-470 79,-93 171,-144 259,-226 -23,-22 8,-71 -29,-82 -149,60 -285,203 -336,332 37,128 57,264 115,384 -142,-56 -290,-186 -441,-188 -66,80 -213,119 -211,240 24,35 63,2 100,-24" /><path
         id="path8819"
         style="fill:#000000;fill-opacity:1;fill-rule:nonzero;stroke:none"
         d="m 1330,2227 c -36,-126 -30,-244 -5,-379 -110,-117 -241,-207 -350,-317 148,21 297,4 446,15 108,-133 61,-324 134,-466 94,126 164,262 269,379 115,-42 317,-22 475,-9 -165,-67 -322,-77 -494,-91 -97,-104 -149,-269 -250,-375 -91,67 -98,138 -163,231 C 996,809 615,375 187,0 112,-3 34,16 0,82 c -11,89 95,129 77,221 438,276 731,740 1080,1113 -82,115 -214,19 -331,24 163,117 219,333 389,437 2,118 8,292 115,350" /><g
         id="g8821"><g
           clip-path="url(#clipPath8825)"
           id="g8823"><path
             id="path8839"
             style="fill:url(#linearGradient8829);fill-opacity:1;fill-rule:nonzero;stroke:none"
             d="M 1407,1349 C 971,1080 778,609 384,283 c -47,15 -90,39 -134,58 368,340 639,726 984,1109 45,-5 90,5 120,29 54,-16 35,-93 53,-130" /></g></g><path
         id="path8841"
         style="fill:#ffc200;fill-opacity:1;fill-rule:nonzero;stroke:none"
         d="m 221,216 c 25,-2 38,24 67,15 60,-46 -27,-77 -33,-125 -54,-42 -123,13 -183,24 -5,61 87,161 149,86" /><g
         id="g8843"><g
           clip-path="url(#clipPath8847)"
           id="g8845"><path
             id="path8861"
             style="fill:url(#radialGradient8851);fill-opacity:1;fill-rule:nonzero;stroke:none"
             d="m 2299,1450 c -158,-13 -360,-33 -475,9 -105,-117 -175,-253 -269,-379 -73,142 -26,333 -134,466 -149,-11 -298,6 -446,-15 109,110 240,200 350,317 -25,135 -31,253 5,379 l 53,24 c -2,-121 145,-160 211,-240 151,2 299,132 441,188 -58,-120 -78,-256 -115,-384 51,-129 187,-272 336,-332 l 43,-33" /></g></g></g></g></svg>